<?xml version="1.0" encoding="utf-8"?>
<!-- Generator: Adobe Illustrator 19.0.0, SVG Export Plug-In . SVG Version: 6.00 Build 0)  -->
<svg version="1.1" id="Capa_1" xmlns="http://www.w3.org/2000/svg" xmlns:xlink="http://www.w3.org/1999/xlink" x="0px" y="0px"
	 viewBox="-452 254.6 53.4 53.4" style="enable-background:new -452 254.6 53.4 53.4;" xml:space="preserve">
<style type="text/css">
	.st0{fill:#DD902F;}
	.st1{fill:#F0F0F0;}
</style>
<rect id="XMLID_61_" x="-452" y="254" class="st0" width="54" height="54"/>
<g id="XMLID_167_">
	<path id="XMLID_67_" class="st1" d="M-444.1,271.4c0.1-0.1,0.1-0.3,0.1-0.4c0.2-1,0.5-2,1.1-2.8c0.1-0.1,0.2-0.2,0.3,0
		c0.9,0.9,1.8,1.8,2.7,2.7c1.2,1.2,2.3,2.3,3.5,3.5c0.8,0.8,1.6,1.6,2.4,2.4c0.1,0.1,0.1,0.3,0.1,0.4c-0.3,0.9-0.3,1.8,0,2.7
		c0.2,0.6,0.6,1.2,1.1,1.7c1.7,1.9,3.5,3.7,5.3,5.5c0.8,0.8,1.6,1.5,2.5,2.2c1.1,0.9,2.4,1.1,3.8,0.7c0.2-0.1,0.4,0,0.6,0.2
		c1,1,2.1,2.1,3.1,3.1c1.2,1.2,2.3,2.3,3.5,3.4c0.6,0.6,1.2,1.2,1.9,1.9c0.2,0.2,0.2,0.3,0,0.4c-0.8,0.6-1.7,0.9-2.7,1.1
		c-0.2,0-0.4,0-0.6,0.1c0,0-0.1,0-0.1,0c0,0-0.1,0-0.1,0c-0.1,0-0.1,0-0.2,0c-0.1,0-0.2,0-0.3,0c-0.2-0.1-0.3,0-0.5,0
		c-0.2,0-0.3,0-0.5,0c-0.1,0-0.2,0-0.2,0c0,0-0.1,0-0.1,0c0,0-0.1,0-0.1,0c-0.1,0-0.2,0-0.2,0c-0.5-0.1-1-0.1-1.5-0.2
		c-1.9-0.4-3.6-1-5.3-1.9c-1.3-0.7-2.5-1.5-3.7-2.3c-1.3-0.9-2.5-1.9-3.7-3c-1.2-1-2.3-2.1-3.3-3.2c-1.3-1.3-2.4-2.7-3.5-4.2
		c-0.9-1.2-1.7-2.4-2.5-3.7c-0.7-1.1-1.2-2.3-1.7-3.5c-0.4-1.2-0.7-2.4-0.9-3.6c0-0.2,0-0.5-0.1-0.7c0-0.1,0-0.2,0-0.2
		c0,0,0-0.1,0-0.1c0-0.1,0-0.2,0-0.3c0.1-0.1,0-0.3,0-0.4c0-0.2,0-0.5,0-0.7c0-0.1,0-0.2,0-0.3c0,0,0-0.1,0-0.1
		C-444.1,271.5-444.1,271.5-444.1,271.4z"/>
	<path id="XMLID_64_" class="st1" d="M-436.4,262.5c0.7,0.3,1.2,1,1.7,1.5c1.8,1.8,3.7,3.7,5.5,5.5c0.7,0.7,0.7,1.6,0,2.2
		c-0.9,0.8-1.7,1.7-2.6,2.6c-0.1,0.1-0.3,0.3-0.4,0.5c-0.2,0.3-0.3,0.2-0.4,0c-2.4-2.4-4.7-4.7-7.1-7.1c-0.4-0.4-0.8-0.8-1.2-1.2
		c-0.2-0.1-0.2-0.2,0-0.4c1-1,2.1-2.1,3.1-3.1c0.2-0.2,0.4-0.3,0.7-0.4C-436.8,262.5-436.6,262.5-436.4,262.5z"/>
	<path id="XMLID_63_" class="st1" d="M-406.6,293c-0.1,0.4-0.3,0.6-0.6,0.9c-1,1-1.9,1.9-2.9,2.9c-0.2,0.2-0.2,0.2-0.4,0
		c-2.7-2.7-5.5-5.5-8.2-8.2c-0.3-0.3-0.3-0.3,0-0.5c1-0.9,2-1.9,2.9-2.9c0.8-0.8,1.5-0.8,2.3,0c2.1,2.1,4.3,4.3,6.4,6.4
		c0.2,0.2,0.4,0.5,0.6,0.8c0,0.1,0,0.2,0,0.3C-406.6,292.7-406.5,292.9-406.6,293z"/>
	<path id="XMLID_59_" class="st1" d="M-444.1,272c0.1,0.2,0,0.5,0.1,0.7c0,0,0,0-0.1,0C-444.1,272.5-444.1,272.3-444.1,272z"/>
	<path id="XMLID_52_" class="st1" d="M-417.2,300.1c0.1-0.1,0.3,0,0.5-0.1c0,0,0,0,0,0c0,0,0,0,0,0
		C-416.9,300.1-417,300.1-417.2,300.1z"/>
	<path id="XMLID_43_" class="st1" d="M-416.7,300.1C-416.7,300.1-416.7,300.1-416.7,300.1c0.2,0,0.3-0.1,0.5,0
		C-416.4,300.1-416.5,300.1-416.7,300.1z"/>
	<path id="XMLID_28_" class="st1" d="M-444.1,272.8C-444.1,272.8-444.1,272.8-444.1,272.8c0,0.1,0.1,0.3,0,0.4
		C-444.1,273-444.1,272.9-444.1,272.8z"/>
	<path id="XMLID_23_" class="st1" d="M-406.6,293c0-0.1,0-0.2,0.1-0.3C-406.5,292.8-406.5,292.9-406.6,293
		C-406.5,293-406.5,293-406.6,293z"/>
	<path id="XMLID_212_" class="st1" d="M-415.9,300.1c0-0.1,0.1-0.1,0.2-0.1c0,0,0,0,0,0c0,0,0,0,0,0
		C-415.8,300.1-415.9,300.1-415.9,300.1z"/>
	<path id="XMLID_211_" class="st1" d="M-444.1,271.6c0.1,0,0.1,0.1,0,0.1C-444.1,271.7-444.1,271.7-444.1,271.6z"/>
	<path id="XMLID_210_" class="st1" d="M-444.1,273.4C-444.1,273.4-444,273.5-444.1,273.4c0.1,0.1,0,0.1,0,0.1
		C-444.1,273.5-444.1,273.5-444.1,273.4z"/>
	<path id="XMLID_209_" class="st1" d="M-417.7,300.1c0-0.1,0.1-0.1,0.1-0.1c0,0,0,0,0,0c0,0,0,0,0,0
		C-417.6,300.1-417.6,300.1-417.7,300.1z"/>
	<path id="XMLID_208_" class="st1" d="M-417.6,300.1C-417.6,300.1-417.6,300.1-417.6,300.1c0.1-0.1,0.1-0.1,0.1,0
		C-417.5,300.1-417.5,300.1-417.6,300.1z"/>
	<path id="XMLID_207_" class="st1" d="M-415.7,300.1C-415.7,300.1-415.7,300.1-415.7,300.1c0.1-0.1,0.1-0.1,0.1,0
		C-415.7,300.1-415.7,300.1-415.7,300.1z"/>
</g>
</svg>
