<?xml version="1.0" encoding="utf-8"?>
<!-- Generator: Adobe Illustrator 19.0.0, SVG Export Plug-In . SVG Version: 6.00 Build 0)  -->
<svg version="1.1" id="Capa_1" xmlns="http://www.w3.org/2000/svg" xmlns:xlink="http://www.w3.org/1999/xlink" x="0px" y="0px"
	 viewBox="0 0 53.4 53.4" style="enable-background:new 0 0 53.4 53.4;" xml:space="preserve">
<style type="text/css">
	.st0{fill:#69B176;}
	.st1{fill:#F0F0F0;}
</style>
<g id="XMLID_23_">
	<rect id="XMLID_61_" class="st0" width="53.4" height="53.4"/>
	<g id="XMLID_27_">
		<g id="XMLID_35_">
			<g id="XMLID_78_">
				<path id="XMLID_7_" class="st1" d="M30.7,31.7c-0.2-0.3-0.3-0.8-0.3-1.7c0-0.8,0.1-1.4,0.3-1.7c0.1-0.2,0.4-0.3,0.6-0.3
					c0.3,0,0.5,0.1,0.6,0.3c0.2,0.3,0.3,0.9,0.3,1.7c0,0.8-0.1,1.4-0.3,1.7c-0.1,0.2-0.3,0.3-0.6,0.3C31,32.1,30.8,31.9,30.7,31.7z"
					/>
				<path id="XMLID_2_" class="st1" d="M29.2,27.5c-0.5,0.6-0.8,1.4-0.8,2.6c0,1.2,0.3,2,0.8,2.6c0.5,0.6,1.2,0.8,2.1,0.8
					c0.9,0,1.6-0.3,2.1-0.8c0.5-0.6,0.8-1.4,0.8-2.6c0-1.2-0.3-2-0.8-2.6c-0.5-0.6-1.2-0.8-2.1-0.8C30.4,26.6,29.7,26.9,29.2,27.5z
					 M29.5,20.1l-6.9,13.6h1.8l6.8-13.6H29.5z M20.5,25.8c0.5,0.6,1.2,0.8,2.1,0.8c0.9,0,1.6-0.3,2.1-0.8c0.5-0.6,0.8-1.4,0.8-2.6
					c0-1.2-0.3-2-0.8-2.6c-0.5-0.6-1.2-0.8-2.1-0.8c-0.9,0-1.6,0.3-2.1,0.8c-0.5,0.6-0.8,1.4-0.8,2.6C19.7,24.4,20,25.2,20.5,25.8z
					 M47.5,26.7l-3,1.7l2.6,2.3l-3.3,1.1l2.1,2.8l-3.5,0.5l1.5,3.1L40.5,38l0.9,3.4L38,40.5l0.2,3.5l-3.1-1.5l-0.5,3.5l-2.8-2.1
					l-1.1,3.3l-2.3-2.6l-1.7,3l-1.7-3l-2.3,2.6l-1.1-3.3l-2.8,2.1l-0.5-3.5L15.2,44l0.2-3.5L12,41.4L13,38l-3.5,0.2l1.5-3.1
					l-3.5-0.5l2.1-2.8l-3.3-1.1L9,28.5l-3-1.7L9,25l-2.6-2.3l3.3-1.1l-2.1-2.8l3.5-0.5l-1.6-3.1l3.5,0.2L12.1,12l3.4,0.9l-0.2-3.5
					l3.1,1.6l0.5-3.5l2.8,2.1l1.1-3.3L25,9l1.7-3l1.7,3l2.3-2.6l1.1,3.3l2.8-2.1l0.5,3.5l3.1-1.5L38,12.9l3.4-0.9l-0.9,3.4l3.5-0.2
					l-1.5,3.1l3.5,0.5l-2.1,2.8l3.3,1.1L44.4,25L47.5,26.7z"/>
				<path id="XMLID_1_" class="st1" d="M21.6,23.2c0-0.8,0.1-1.4,0.3-1.7c0.2-0.2,0.4-0.3,0.6-0.3c0.3,0,0.5,0.1,0.6,0.3
					c0.2,0.3,0.3,0.8,0.3,1.7s-0.1,1.4-0.3,1.7c-0.2,0.2-0.4,0.3-0.6,0.3c-0.3,0-0.5-0.1-0.6-0.3C21.7,24.6,21.6,24,21.6,23.2z"/>
			</g>
			<g id="XMLID_79_">
			</g>
		</g>
	</g>
</g>
</svg>
