<?xml version="1.0" encoding="utf-8"?>
<!-- Generator: Adobe Illustrator 19.0.0, SVG Export Plug-In . SVG Version: 6.00 Build 0)  -->
<svg version="1.1" id="Capa_1" xmlns="http://www.w3.org/2000/svg" xmlns:xlink="http://www.w3.org/1999/xlink" x="0px" y="0px"
	 viewBox="-319 251 119 60" style="enable-background:new -319 251 119 60;" xml:space="preserve">
<style type="text/css">
	.st0{fill:#F0F0F0;}
	.st1{fill:url(#XMLID_2_);}
	.st2{fill:url(#XMLID_3_);}
	.st3{fill:url(#XMLID_4_);}
	.st4{fill:url(#XMLID_5_);}
	.st5{fill:url(#XMLID_6_);}
</style>
<g id="XMLID_120_">
	<path id="XMLID_68_" class="st0" d="M-228.7,250.9l20.8,20.6c0,0,8.2,9,0.1,17.1l-22.5,22.7H-319v-60.5L-228.7,250.9z"/>
	<g id="XMLID_100_">
		<g id="XMLID_140_">
			
				<radialGradient id="XMLID_2_" cx="-296.4323" cy="281.7608" r="11.7639" gradientTransform="matrix(1 0 0 -1 0 564)" gradientUnits="userSpaceOnUse">
				<stop  offset="0" style="stop-color:#263B80"/>
				<stop  offset="0.253" style="stop-color:#2B4184"/>
				<stop  offset="1" style="stop-color:#2D4385"/>
			</radialGradient>
			<path id="XMLID_142_" class="st1" d="M-283,277.3v6.1c-0.4,1.2-2,1.7-2,1.7h-19.2c0.1,1.9,3,2.3,3,2.3l5.3,0.1
				c1.4,0.7,1.3,2.6,1.3,2.6c0.1,1.1-1.4,2-1.4,2h-7.4c-4.5-0.2-6.6-5-6.6-5v-9.4c0.9-4.5,7.7-5.2,7.7-5.2h13.3
				C-283.9,273.3-283,277.3-283,277.3z M-288.4,280v-1.8c0,0-0.5-0.9-2.8-0.9c-2.3,0-11.1,0-11.1,0s-2,0.1-2.3,1.4v1.3H-288.4z"/>
		</g>
		<g id="XMLID_141_">
		</g>
	</g>
	<g id="XMLID_83_">
		<g id="XMLID_133_">
			
				<radialGradient id="XMLID_3_" cx="-265.7" cy="282.2699" r="5.9023" gradientTransform="matrix(1 0 0 -1 0 564)" gradientUnits="userSpaceOnUse">
				<stop  offset="0" style="stop-color:#263B80"/>
				<stop  offset="0.253" style="stop-color:#2B4184"/>
				<stop  offset="1" style="stop-color:#2D4385"/>
			</radialGradient>
			<path id="XMLID_137_" class="st2" d="M-259.9,285.1l0.9,0.9c0,0-0.7,1.7-2.3,0c0,0-0.8,0.7-1.7,0.8h-6.4c0,0-2.6-0.4-3-1.6
				c0,0-0.7-3,2.3-3.6c0,0-1.7-1.7-1.4-2.9c0.3-1.2,0.6-1.8,2.8-1.8h0.1v1.4c0,0-2.2,1.3,0.9,2.5l3.4-0.7l0.9,0.9
				c-0.5,0.5-1.1,1-2,1.4l3.5,2V282c0,0,0.9-1.1,1.9,0v3.1H-259.9z M-269.3,285.1h5.8l-4.2-2.5
				C-267.7,282.5-272.8,283.5-269.3,285.1z"/>
			
				<radialGradient id="XMLID_4_" cx="-263.505" cy="285.2" r="1.6937" gradientTransform="matrix(1 0 0 -1 0 564)" gradientUnits="userSpaceOnUse">
				<stop  offset="0" style="stop-color:#263B80"/>
				<stop  offset="0.253" style="stop-color:#2B4184"/>
				<stop  offset="1" style="stop-color:#2D4385"/>
			</radialGradient>
			<path id="XMLID_136_" class="st3" d="M-264.1,276.8c0,0,2,0.2,1.9,2.6c0,0-0.3,0.6-1.1,1.4l-1-0.8c0,0,0.6-1.4-0.5-1.8v-1.4
				C-264.4,276.8-264.1,276.8-264.1,276.8z"/>
			
				<radialGradient id="XMLID_5_" cx="-266.6758" cy="286.5243" r="1.4361" gradientTransform="matrix(1 0 0 -1 0 564)" gradientUnits="userSpaceOnUse">
				<stop  offset="0" style="stop-color:#263B80"/>
				<stop  offset="0.253" style="stop-color:#2B4184"/>
				<stop  offset="1" style="stop-color:#2D4385"/>
			</radialGradient>
			<path id="XMLID_135_" class="st4" d="M-264.8,276.8v1.4h-3.8v-1.4C-267.2,276.8-265.6,276.8-264.8,276.8z"/>
		</g>
		<g id="XMLID_134_">
		</g>
	</g>
	
		<radialGradient id="XMLID_6_" cx="-276.3022" cy="311.3474" r="10.9377" gradientTransform="matrix(1.1344 0 0 -1.1344 78.8372 635.5196)" gradientUnits="userSpaceOnUse">
		<stop  offset="0" style="stop-color:#263B80"/>
		<stop  offset="0.253" style="stop-color:#2B4184"/>
		<stop  offset="1" style="stop-color:#2D4385"/>
	</radialGradient>
	<path id="XMLID_82_" class="st5" d="M-240.7,287.3h18.9c0,0,1.6,1,1.5,2.4c-0.1,1.4-0.1,2.1-1.8,2.5l-19.1-0.2c0,0-6.8,0.4-7.8-3.5
		v-10.9c0,0,2.2-5.3,7.2-5.3h19.9c0,0,1.7,1.1,1.7,2.4c0,1.3-0.1,2.6-1.4,2.6h-18.8c0,0-2.6-0.1-2.6,1.3v7.3
		C-243,285.9-242.9,287.3-240.7,287.3z"/>
</g>
</svg>
