<?xml version="1.0" encoding="utf-8"?>
<!-- Generator: Adobe Illustrator 19.0.0, SVG Export Plug-In . SVG Version: 6.00 Build 0)  -->
<svg version="1.1" id="Capa_1" xmlns="http://www.w3.org/2000/svg" xmlns:xlink="http://www.w3.org/1999/xlink" x="0px" y="0px"
	 viewBox="0 0 53.4 53.4" style="enable-background:new 0 0 53.4 53.4;" xml:space="preserve">
<style type="text/css">
	.st0{fill:#F7931E;}
	.st1{fill:#F0F0F0;}
</style>
<rect id="XMLID_61_" class="st0" width="53.4" height="53.4"/>
<path id="XMLID_16_" class="st1" d="M12.2,45.1c0,4.1,2.8,3.9,2.8,3.9h24c2.2-1.1,2.2-4,2.2-4c0-9.7,0-19.3,0-29c0-2.9,0-5.8,0-8.8
	c0-0.6-0.1-1.3-0.4-1.9C40.1,4.1,39,3,37.5,3c-7.2,0-14.4,0-21.5,0c-0.3,0-0.6,0.2-0.9,0.3c-1.7,0.6-2.9,2.5-2.9,4.1
	C12.2,20,12.2,32.6,12.2,45.1 M21.3,5.3c3.4,0,6.8,0,10.3,0c0.3,0,0.7-0.1,0.9,0.1c0.2,0.2,0,0.6,0.1,0.9c0,0,0,0.1,0,0.1
	c0.1,0.3,0,0.4-0.4,0.4c-1.8,0-3.6,0-5.5,0c-1.8,0-3.6,0-5.4,0c-0.2,0-0.4,0-0.3-0.3c0-0.3,0-0.5,0-0.8C20.9,5.4,21,5.3,21.3,5.3z
	 M26.7,46.5c-1.6,0-2.9-1.3-2.9-2.9c0-1.6,1.3-2.9,2.9-2.9c1.6,0,2.9,1.3,2.9,2.9C29.6,45.2,28.3,46.5,26.7,46.5z M37.9,37.9
	c-7.5,0-14.9,0-22.4,0c-0.3,0-0.4-0.1-0.4-0.4c0-9.4,0-18.8,0-28.2C15.1,9,15.2,9,15.5,9C23,9,30.4,9,37.9,9c0.3,0,0.4,0.1,0.4,0.4
	c0,4.7,0,9.4,0,14.1c0,4.7,0,9.4,0,14.1C38.3,37.8,38.2,37.9,37.9,37.9z"/>
</svg>
