<?xml version="1.0" encoding="utf-8"?>
<!-- Generator: Adobe Illustrator 19.0.0, SVG Export Plug-In . SVG Version: 6.00 Build 0)  -->
<svg version="1.1" id="Capa_1" xmlns="http://www.w3.org/2000/svg" xmlns:xlink="http://www.w3.org/1999/xlink" x="0px" y="0px"
	 viewBox="0 0 53.4 53.4" style="enable-background:new 0 0 53.4 53.4;" xml:space="preserve">
<style type="text/css">
	.st0{fill:#136EA0;}
	.st1{fill:#F2F2F2;}
	.st2{fill:none;}
</style>
<rect id="XMLID_53_" class="st0" width="53.4" height="53.4"/>
<g id="XMLID_54_">
	<path id="XMLID_78_" class="st1" d="M40.8,51.2c-0.1,0-0.3,0-0.4,0c0,0,0-0.1,0-0.1C40.5,51.1,40.7,51.1,40.8,51.2
		C40.8,51.2,40.8,51.2,40.8,51.2z"/>
	<path id="XMLID_77_" class="st1" d="M51.2,38.8C51.2,38.8,51.2,38.8,51.2,38.8C51.1,38.7,51.2,38.7,51.2,38.8
		C51.2,38.7,51.2,38.7,51.2,38.8z"/>
	<path id="XMLID_76_" class="st1" d="M40.2,51.2C40.2,51.2,40.2,51.2,40.2,51.2C40.2,51.2,40.3,51.1,40.2,51.2c0.1,0,0.1,0,0.1,0
		C40.3,51.2,40.3,51.2,40.2,51.2C40.3,51.2,40.2,51.2,40.2,51.2z"/>
	<path id="XMLID_75_" class="st1" d="M40.3,51.2C40.3,51.2,40.3,51.2,40.3,51.2C40.3,51.2,40.4,51.2,40.3,51.2
		C40.4,51.2,40.4,51.2,40.3,51.2C40.4,51.2,40.3,51.2,40.3,51.2z"/>
	<path id="XMLID_74_" class="st1" d="M40.8,51.2C40.8,51.2,40.8,51.2,40.8,51.2C40.8,51.2,40.9,51.1,40.8,51.2c0.1,0,0.1,0,0.1,0
		C40.9,51.2,40.9,51.2,40.8,51.2C40.9,51.2,40.8,51.2,40.8,51.2z"/>
	<path id="XMLID_73_" class="st1" d="M40.9,51.2C40.9,51.2,40.9,51.2,40.9,51.2C40.9,51.2,41,51.2,40.9,51.2
		C41,51.2,41,51.2,40.9,51.2C41,51.2,40.9,51.2,40.9,51.2z"/>
	<path id="XMLID_72_" class="st1" d="M2.4,29.8c-0.1,0-0.2,0-0.3,0.1C2.3,29.7,2.3,29.7,2.4,29.8C2.4,29.7,2.4,29.8,2.4,29.8z"/>
	<path id="XMLID_71_" class="st1" d="M21.3,2.8C21.3,2.8,21.2,2.8,21.3,2.8c-0.1,0-0.1-0.1-0.1-0.2c0,0,0,0,0.1,0
		C21.2,2.6,21.3,2.7,21.3,2.8z"/>
	<path id="XMLID_70_" class="st1" d="M36.3,3C36.3,3,36.3,2.9,36.3,3c0-0.1,0-0.2,0.1-0.2c0,0,0,0,0,0C36.4,2.8,36.4,2.9,36.3,3z"/>
	<path id="XMLID_69_" class="st1" d="M21,2.3C21,2.3,21,2.3,21,2.3c0-0.1-0.1-0.1,0-0.1C21,2.2,21,2.2,21,2.3C21,2.3,21,2.3,21,2.3z
		"/>
	<path id="XMLID_68_" class="st1" d="M21,2.3C21,2.3,21,2.3,21,2.3C21.1,2.3,21.1,2.3,21,2.3C21.1,2.4,21.1,2.4,21,2.3
		C21,2.4,21,2.3,21,2.3z"/>
	<path id="XMLID_67_" class="st1" d="M36.5,2.5c0,0,0-0.1,0.1-0.1C36.6,2.5,36.5,2.5,36.5,2.5C36.5,2.6,36.5,2.6,36.5,2.5z"/>
	<path id="XMLID_66_" class="st1" d="M21,2.4C21.1,2.4,21.1,2.4,21,2.4C21.1,2.4,21.1,2.5,21,2.4C21.1,2.5,21.1,2.5,21,2.4
		C21,2.5,21,2.4,21,2.4z"/>
	<path id="XMLID_65_" class="st1" d="M21.1,2.5C21.1,2.5,21.1,2.5,21.1,2.5C21.1,2.5,21.2,2.5,21.1,2.5C21.2,2.6,21.1,2.6,21.1,2.5
		C21.1,2.6,21.1,2.5,21.1,2.5z"/>
	<path id="XMLID_64_" class="st1" d="M36.5,2.5C36.5,2.5,36.5,2.5,36.5,2.5C36.5,2.6,36.5,2.6,36.5,2.5C36.4,2.7,36.4,2.7,36.5,2.5
		C36.4,2.6,36.4,2.6,36.5,2.5z"/>
	<path id="XMLID_63_" class="st1" d="M36.4,2.6C36.4,2.6,36.4,2.6,36.4,2.6C36.5,2.7,36.5,2.7,36.4,2.6C36.4,2.7,36.4,2.7,36.4,2.6
		C36.4,2.7,36.4,2.7,36.4,2.6C36.4,2.7,36.4,2.7,36.4,2.6z"/>
	<g id="XMLID_55_">
		<path id="XMLID_62_" class="st2" d="M45.6,26.1c0.4-0.5,0.6-1.1,0.6-1.7c0-0.1,0-0.2,0-0.3c-0.1-0.6-0.3-1.1-0.8-1.5
			C45,22.1,44.6,22,44,22.1c-0.4,0.1-0.7,0.3-1,0.6c-0.8,0.9-0.8,2.5,0,3.4C43.8,26.8,44.9,26.9,45.6,26.1z"/>
		<path id="XMLID_61_" class="st2" d="M43.3,29.3c-0.9,0.9-0.8,2.5,0,3.4c0.3,0.4,0.8,0.6,1.3,0.6c0.5,0,1-0.3,1.3-0.7
			c0.4-0.5,0.5-1,0.5-1.6c0-0.6-0.2-1.2-0.6-1.7C45.1,28.5,44,28.5,43.3,29.3z"/>
		<path id="XMLID_56_" class="st1" d="M48,32.8c0-4.3,0-8.6,0-12.9c0-0.8,0.2-1.4-0.6-1.9c-0.3-0.2-0.4-0.3-0.8-0.3
			c-2,0-3.9,0-5.9,0c0,0,0,0-0.1,0c-0.1,0-0.1,0-0.2-0.1c-0.1-0.2-0.2-0.3-0.3-0.5c-0.7-0.7-1.4-1.3-2.3-1.8c-1.2-0.6-2.5-1-3.8-1.2
			c-0.1,0-0.3,0-0.4-0.1c0-0.1,0.1-0.2,0.1-0.2c1.3-3.4,2.6-6.8,3.9-10.1c0.2-0.6,0.5-1.2,0.7-1.8c0,0,0-0.1,0-0.1
			c0,0,0,0.1-0.1,0.1C37,4.4,35.8,6.7,34.6,9c-0.8,1.6-1.7,3.2-2.5,4.8C32,13.9,32,14,31.8,14c-0.7,0-1.3,0-2,0
			c-0.2,0-0.3-0.1-0.4-0.2C27.8,10.4,26,7,24.3,3.7c-0.3-0.6-0.7-1.3-1-1.9c0,0-0.1,0,0,0.1c0,0.1,0,0.2,0.1,0.2
			c1.5,4,3.1,7.9,4.6,11.9c0,0.1,0.1,0.2,0.1,0.3c-0.4,0.1-0.8,0.2-1.3,0.3c-1.3,0.3-2.6,0.8-3.7,1.6c-0.7,0.4-1.3,1-1.8,1.6
			c-0.1,0.1-0.2,0.2-0.4,0.2c-3.7,0-7.5,0-11.2,0c-0.2,0-0.4,0-0.7,0c-0.6,0-1.1,0.2-1.5,0.6c-0.4,0.4-1,0.9-1,1.5
			c0,8.7-0.4,17.5-0.4,26.2c0,0,0,0.1,0,0.1c0,0.5,0.6,0.9,0.9,1.3c0.4,0.5,1.2,0.7,1.8,0.7c0.8,0,1.7,0,2.5,0c0.2,0,0.2,0,0.3,0.2
			c0.2,0.5,0.5,0.8,0.9,1.1c0.6,0.4,1.4,0.5,2.1,0.2c0.7-0.2,1.2-0.6,1.5-1.4c0-0.1,0.1,0.3,0.2,0.3c0.1,0,0.1,0.4,0.2,0.4
			c7.9,0,15.7,0,23.6,0c0.1,0,0.1-0.4,0.2-0.4c0.1,0,0.1-0.2,0.1-0.1c0.1,0.6,0.4,1,0.9,1.3c0.3,0.2,0.7,0.3,1,0.3c0,0,0.1,0,0.1,0
			c0,0,0.1-0.1,0.1-0.1c0.1,0,0.3-0.1,0.4-0.1c0,0,0.1,0,0.1,0c0,0,0.1,0.1,0.1,0.1c0.1,0,0.1,0,0.2,0c0.4-0.1,0.7-0.2,1-0.5
			c0.4-0.3,0.6-0.7,0.7-1.2c0-0.2,0-0.2,0.2-0.2c0.6,0,1.2,0,1.8,0c0.2,0,0.3,0,0.5,0c1-0.2,1.2-1.1,1.2-2.1
			C48.6,41.7,48,37.3,48,32.8z M39.5,42.6c-1,0.1-1.9,0.1-2.9,0.2c-1.3,0.1-2.5,0.1-3.8,0.2c-0.6,0-1.3,0-1.9,0.1
			c-1.9,0.1-3.9,0.1-5.8,0.1c-1.8,0-3.6,0-5.5-0.1c-1,0-2.1-0.1-3.1-0.1c-1-0.1-2-0.1-3-0.2c-0.6,0-1.2-0.1-1.7-0.1
			c-0.7-0.1-1.4-0.6-1.6-1.2c0-0.1-0.1-0.3-0.1-0.4c0-3,0-6.1,0-9.1c0-3,0.1-6,0.1-9.1c0-0.9,0.7-1.6,1.6-1.7
			c0.7-0.1,1.5-0.1,2.2-0.2c0.9-0.1,1.9-0.1,2.8-0.2c2-0.1,4-0.2,6-0.2c1.5,0,3,0,4.5,0c1.5,0,2.9,0.1,4.4,0.1c1,0,2.1,0.1,3.1,0.1
			c1.2,0.1,2.4,0.2,3.7,0.2c0.4,0,0.9,0,1.3,0.1c0.8,0.1,1.4,0.8,1.4,1.6c0,6.1,0,12.1,0,18.2C41,41.8,40.3,42.5,39.5,42.6z
			 M43.1,22.7c0.3-0.3,0.6-0.5,1-0.6c0.5-0.1,1,0,1.4,0.4c0.5,0.4,0.7,0.9,0.8,1.5c0,0.1,0,0.2,0,0.3c0,0.7-0.2,1.3-0.6,1.7
			c-0.7,0.8-1.8,0.8-2.5,0C42.3,25.2,42.3,23.6,43.1,22.7z M45.9,32.6c-0.3,0.4-0.8,0.7-1.3,0.7c-0.5,0-0.9-0.2-1.3-0.6
			c-0.9-0.9-0.9-2.5,0-3.4c0.7-0.8,1.8-0.8,2.5,0c0.4,0.5,0.6,1.1,0.6,1.7C46.4,31.6,46.3,32.1,45.9,32.6z"/>
	</g>
</g>
</svg>
