<?xml version="1.0" encoding="utf-8"?>
<!-- Generator: Adobe Illustrator 19.0.0, SVG Export Plug-In . SVG Version: 6.00 Build 0)  -->
<svg version="1.1" id="Capa_1" xmlns="http://www.w3.org/2000/svg" xmlns:xlink="http://www.w3.org/1999/xlink" x="0px" y="0px"
	 viewBox="0 0 200 200" style="enable-background:new 0 0 200 200;" xml:space="preserve">
<style type="text/css">
	.st0{fill:#F6F6F7;}
</style>
<g id="XMLID_25_">
	<path id="XMLID_43_" class="st0" d="M15.2,55.1c0.7-0.5,0.4-1.3,0.6-1.9c0.8-4.6,2.1-8.9,5.1-12.6c0.5-0.6,0.8-0.7,1.4-0.1
		c4.1,4.1,8.2,8.2,12.3,12.3C39.8,58,45,63.2,50.2,68.4c3.6,3.6,7.2,7.2,10.8,10.7c0.6,0.6,0.5,1.1,0.3,1.8
		c-1.3,4.1-1.2,8.2,0.1,12.3c1,2.9,2.8,5.2,4.8,7.4c7.6,8.5,15.5,16.7,23.8,24.6c3.6,3.4,7.2,6.8,11,9.8c5.1,4.1,10.9,4.7,17.1,3
		c1.1-0.3,1.8-0.1,2.6,0.7c4.6,4.7,9.3,9.3,14,14c5.2,5.2,10.3,10.3,15.5,15.5c2.8,2.8,5.6,5.6,8.4,8.4c0.8,0.8,0.9,1.2-0.1,2
		c-3.6,2.9-7.8,4.1-12.2,4.9c-0.8,0.1-1.8,0-2.5,0.6c-0.2,0-0.4,0-0.5,0c-0.2-0.2-0.4-0.1-0.6-0.1c-0.3,0-0.5-0.1-0.8,0.1
		c-0.4,0-0.9,0-1.3,0c-0.7-0.3-1.4-0.1-2.2-0.1c-0.7,0.1-1.5-0.2-2.2,0.1c-0.4,0-0.7,0-1.1,0c-0.1-0.2-0.3-0.1-0.5-0.1
		c-0.2,0-0.4,0-0.5,0.1c-0.4,0-0.7,0-1.1,0c-2.2-0.4-4.4-0.5-6.6-1c-8.4-1.7-16.3-4.5-23.9-8.6c-5.8-3.1-11.4-6.7-16.8-10.5
		c-5.8-4.1-11.4-8.7-16.7-13.4c-5.2-4.6-10.1-9.4-14.9-14.4c-5.6-5.9-10.9-12.2-15.8-18.7c-3.9-5.3-7.7-10.7-11.1-16.4
		c-2.9-5.1-5.5-10.3-7.5-15.8c-1.9-5.3-3.2-10.7-4.1-16.2c-0.2-1.1,0.1-2.2-0.4-3.2c0-0.4,0-0.7,0-1.1c0.2-0.2,0.2-0.4,0-0.5
		c0-0.4,0-0.9,0-1.3c0.3-0.6,0.1-1.2,0.1-1.7c-0.1-1,0.2-2.1-0.1-3.1c0-0.4,0-0.9,0-1.3c0.2-0.2,0.2-0.4,0-0.5
		C15.2,55.8,15.2,55.5,15.2,55.1z"/>
	<path id="XMLID_41_" class="st0" d="M50,15.2c3.3,1.4,5.3,4.3,7.7,6.7C66,30,74.2,38.4,82.5,46.5c3.2,3.1,3.2,7,0,10
		c-3.9,3.7-7.7,7.6-11.6,11.5c-0.6,0.6-1.3,1.3-1.8,2c-0.7,1.2-1.2,0.7-2,0C56.6,59.4,46.1,48.8,35.5,38.2c-1.7-1.7-3.5-3.5-5.3-5.2
		c-0.7-0.6-0.8-1.1-0.1-1.8c4.7-4.6,9.4-9.3,14-14c0.9-0.9,2-1.3,3-2C48.1,15.2,49.1,15.2,50,15.2z"/>
	<path id="XMLID_40_" class="st0" d="M183.9,152c-0.3,1.8-1.6,2.9-2.7,4.1c-4.3,4.4-8.7,8.7-13.1,13.1c-0.7,0.7-1.1,0.8-1.8,0
		c-12.3-12.3-24.6-24.6-36.9-36.9c-1.2-1.2-1.2-1.2,0.1-2.3c4.6-4.1,8.8-8.6,13.1-13c3.4-3.4,6.8-3.5,10.2-0.1
		c9.6,9.6,19.2,19.3,28.9,28.9c1.1,1.1,1.8,2.3,2.5,3.6c0,0.4,0,0.9,0,1.3C183.8,151.1,184.2,151.6,183.9,152z"/>
	<path id="XMLID_39_" class="st0" d="M15.2,58.1c0.6,1,0.1,2.2,0.3,3.2c-0.1,0.1-0.2,0.1-0.3,0C15.2,60.2,15.2,59.2,15.2,58.1z"/>
	<path id="XMLID_38_" class="st0" d="M136.1,184.1c0.7-0.6,1.4-0.1,2.2-0.3c0.1,0.1,0.1,0.1,0.1,0.2c0,0.1-0.1,0.1-0.1,0.1
		C137.6,184.1,136.9,184.1,136.1,184.1z"/>
	<path id="XMLID_37_" class="st0" d="M138.3,184.1c0-0.1,0-0.2,0-0.3c0.7,0.1,1.5-0.3,2.2,0.3C139.7,184.1,139,184.1,138.3,184.1z"
		/>
	<path id="XMLID_36_" class="st0" d="M15.2,61.3c0.1,0,0.2,0,0.3,0c-0.1,0.5,0.3,1.2-0.3,1.6C15.2,62.4,15.2,61.9,15.2,61.3z"/>
	<path id="XMLID_35_" class="st0" d="M183.9,152c-0.1-0.5-0.1-1,0.3-1.4c0,0.4,0,0.9,0,1.3C184.1,152,184,152,183.9,152z"/>
	<path id="XMLID_34_" class="st0" d="M141.8,184.1c0.2-0.4,0.5-0.3,0.8-0.3c0.1,0.1,0.1,0.1,0.1,0.2c0,0.1-0.1,0.1-0.1,0.1
		C142.3,184.1,142.1,184.1,141.8,184.1z"/>
	<path id="XMLID_33_" class="st0" d="M15.2,56.2c0.4,0.2,0.4,0.4,0,0.5C15.2,56.5,15.2,56.4,15.2,56.2z"/>
	<path id="XMLID_32_" class="st0" d="M15.2,64.3c0.2,0,0.3,0.1,0.3,0.3c0,0.1-0.2,0.1-0.3,0.2C15.2,64.6,15.2,64.5,15.2,64.3z"/>
	<path id="XMLID_31_" class="st0" d="M134,184.1c0-0.4,0.3-0.3,0.5-0.3c0.1,0.1,0.1,0.1,0.1,0.2c0,0.1-0.1,0.1-0.1,0.1
		C134.3,184.1,134.2,184.1,134,184.1z"/>
	<path id="XMLID_30_" class="st0" d="M134.5,184.1c0-0.1,0-0.2,0-0.3c0.2-0.1,0.5-0.1,0.5,0.3C134.9,184.1,134.7,184.1,134.5,184.1z
		"/>
	<path id="XMLID_29_" class="st0" d="M142.6,184.1c0-0.1,0-0.2,0-0.3c0.2,0,0.5-0.1,0.5,0.3C143,184.1,142.8,184.1,142.6,184.1z"/>
</g>
</svg>
