<?xml version="1.0" encoding="utf-8"?>
<!-- Generator: Adobe Illustrator 19.0.0, SVG Export Plug-In . SVG Version: 6.00 Build 0)  -->
<svg version="1.1" id="Capa_1" xmlns="http://www.w3.org/2000/svg" xmlns:xlink="http://www.w3.org/1999/xlink" x="0px" y="0px"
	 viewBox="-59 141 200 200" style="enable-background:new -59 141 200 200;" xml:space="preserve">
<style type="text/css">
	.st0{fill:#FFFFFF;}
</style>
<g id="XMLID_117_">
	<path id="XMLID_154_" class="st0" d="M-53.3,241c0.5-1.2,1.4-2,2.4-2.8c12.3-10.2,24.6-20.5,36.9-30.7c9.3-7.8,18.7-15.5,28-23.3
		c6-5,12-10.1,18-15c5.3-4.4,12.9-4.4,18.2,0c9.1,7.5,18.2,15.2,27.3,22.7c0.3,0.2,0.4,0.7,0.8,0.5c0.5-0.2,0.3-0.7,0.3-1.1
		c0-6.7,0-13.5,0-20.2c0-3.8,1.2-4.9,5-4.9c6.7,0,13.5,0,20.2,0c3.1,0,4.8,1.5,4.8,4.7c-0.1,15.1,0,30.3-0.1,45.4
		c0,1,0.3,1.7,1.1,2.3c5.7,4.7,11.4,9.4,17,14.1c2.3,1.9,4.6,3.8,6.9,5.8c0.5,0.4,1.1,0.9,1.4,1.6c0.6,1.2,0.6,2.4,0,3.7
		c-1.5,2.5-3.7,4.5-5.4,6.8c-0.7,0.9-1.4,1.7-2.2,2.5c-1.6,1.6-3.5,1.8-5.3,0.3c-6-5-12-10-18.1-15c-9.7-8.1-19.3-16.1-29-24.2
		c-10.8-9-21.6-18.1-32.4-27.1c-1-0.9-1.8-1-2.9,0c-9.7,8.2-19.6,16.3-29.3,24.5c-6.9,5.8-13.8,11.6-20.8,17.4
		c-6.3,5.2-12.6,10.4-18.9,15.7c-3.1,2.6-6.1,5.2-9.2,7.7c-0.9,0.7-1.8,1.5-2.9,1.9c-1.6,0.4-3-0.2-4-1.4c-2.7-3.2-5.4-6.3-7.9-9.6
		C-53.3,242.4-53.3,241.7-53.3,241z"/>
	<path id="XMLID_115_" class="st0" d="M108.5,280.9c0,8.9,0,17.8,0,26.7c0,5.5-2.9,8.5-8.4,8.5c-14.1,0-28.2,0-42.4,0
		c-1.4,0-1.6-0.4-1.6-1.7c0-13.9,0-27.7,0.1-41.6c0-1.4-0.4-1.7-1.7-1.7c-8.9,0.1-17.9,0.1-26.8,0c-1.2,0-1.5,0.4-1.5,1.5
		c0,13.9,0,27.8,0.1,41.8c0,1.4-0.4,1.7-1.7,1.7c-14.1-0.1-28.1,0-42.2,0c-5.5,0-8.5-2.9-8.5-8.4c0-18,0-36.1,0-54.1
		c0-1.3,0.5-2.1,1.4-2.9c10.4-8.5,20.8-17.1,31.1-25.6c6.4-5.3,12.9-10.6,19.3-15.9c4.9-4,9.8-8.1,14.7-12.2c0.7-0.6,1-0.6,1.7,0
		c10.3,8.5,20.6,17.1,31,25.6c9.6,7.9,19.3,15.8,28.9,23.8c1.9,1.6,3.8,3.2,5.8,4.8c0.8,0.6,0.9,1.4,0.9,2.3
		C108.5,262.5,108.5,271.7,108.5,280.9z"/>
</g>
</svg>
