<?xml version="1.0" encoding="utf-8"?>
<!-- Generator: Adobe Illustrator 19.0.0, SVG Export Plug-In . SVG Version: 6.00 Build 0)  -->
<svg version="1.1" id="Capa_1" xmlns="http://www.w3.org/2000/svg" xmlns:xlink="http://www.w3.org/1999/xlink" x="0px" y="0px"
	 viewBox="0 0 200 200" style="enable-background:new 0 0 200 200;" xml:space="preserve">
<style type="text/css">
	.st0{fill:#F0F0F0;}
</style>
<path id="XMLID_16_" class="st0" d="M153.9,29.5c0-2.3-0.6-4.5-1.6-6.6c-2.6-5-6.6-7.9-12.2-8.9c-26.7,0-53.4,0-80.1,0
	c-1,0-2.2,0.4-3.2,0.7C50.3,17,46,23.8,46.1,29.9c0.1,46.7,0,93.4,0,140.1c0,4.6,1.8,8.5,5,11.7c2.3,2.3,5.1,4.3,8.3,4.3
	c0.2,0,0.4,0,0.5,0c0.5,0,1.1,0,1.6,0c25.8,0,51.6,0,77.4,0c0.4,0,0.9-0.5,1.4-0.3c0,0,0,0.1,0,0.1c0.1,0,0.2,0,0.3,0
	c1.1-0.1,2.3-0.3,3.3-0.8c6.4-3,10-8,10-15.2c0-35.9,0-71.8,0-107.7C153.9,51.2,153.9,40.3,153.9,29.5z M79.9,22.1
	c12.7,0,25.4,0,38.1,0c1.1,0,2.6-0.5,3.3,0.2c0.7,0.7,0.2,2.2,0.2,3.3c0,0.2,0,0.4,0,0.5c0.2,1.1-0.2,1.5-1.4,1.4
	c-6.8-0.1-13.5,0-20.3,0c-6.7,0-13.4,0-20.2,0c-0.9,0-1.3-0.1-1.2-1.2c0.1-1,0.1-2,0-3C78.4,22.3,78.8,22.1,79.9,22.1z M100.1,175.1
	c-5.8,0.1-10.7-4.7-10.8-10.7c-0.1-5.9,4.7-10.7,10.6-10.8c5.9,0,10.7,4.7,10.8,10.6C110.8,170.2,106,175.1,100.1,175.1z
	 M141.5,143.1c-27.7,0-55.4,0-83.1,0c-1.1,0-1.5-0.3-1.5-1.4c0-34.9,0-69.9,0-104.8c0-1.1,0.4-1.3,1.4-1.3c27.8,0,55.5,0,83.3,0
	c1.3,0,1.5,0.4,1.5,1.5c0,17.4,0,34.8,0,52.3c0,17.4,0,34.8,0,52.3C143.1,142.8,142.7,143.1,141.5,143.1z"/>
</svg>
