<?xml version="1.0" encoding="utf-8"?>
<!-- Generator: Adobe Illustrator 19.0.0, SVG Export Plug-In . SVG Version: 6.00 Build 0)  -->
<svg version="1.1" id="Capa_1" xmlns="http://www.w3.org/2000/svg" xmlns:xlink="http://www.w3.org/1999/xlink" x="0px" y="0px"
	 viewBox="0 0 200 200" style="enable-background:new 0 0 200 200;" xml:space="preserve">
<style type="text/css">
	.st0{fill:#F6F6F7;}
	.st1{fill:#4B72AF;}
</style>
<g id="XMLID_1_">
	<g id="XMLID_31_">
		<path id="XMLID_35_" class="st0" d="M165.4,137.5c3.6-2.2,7.2-4.3,10.7-6.4c8.7-5.3,11.2-15.3,5.9-23.9c-13.6-22-27-44-40.2-66.2
			c-3.2-5.4-6.3-10.3-9.3-15.9c-2.7-5.1-6.3-10-11.8-10c-2.9,0-5.8,0-8.6,0c-6.6,0-12.3,6.2-18.4,9.8C70.8,38.4,48.4,51.9,25.5,65.4
			C19.4,69,14,72.9,14,80.2c0,1,0,2,0,3c0,4.4,2.6,8,4.8,11.7c15.8,26.3,31.4,52.8,47,79.3c3.2,5.5,7.1,10.8,13.3,10.8
			c1.6,0,3.2,0,4.8,0c3.4,0,6.3-2.5,9.2-4.2c16-9.6,32.1-19.3,48.1-28.9L165.4,137.5z"/>
	</g>
	<g id="XMLID_15_">
		<g id="XMLID_30_">
			<path id="XMLID_16_" class="st1" d="M93.2,107.5v7.2c-0.4,1.4-2.3,1.9-2.3,1.9H68.4c0.1,2.2,3.5,2.7,3.5,2.7l6.2,0.1
				c1.7,0.8,1.6,3,1.6,3c0.1,1.3-1.7,2.3-1.7,2.3h-8.6c-5.3-0.2-7.7-5.8-7.7-5.8v-11c1.1-5.3,9-6,9-6h15.6
				C92.1,102.9,93.2,107.5,93.2,107.5z M86.9,110.6v-2.2c0,0-0.6-1.1-3.2-1s-13,0-13,0s-2.4,0.1-2.7,1.6v1.6H86.9z"/>
		</g>
		<g id="XMLID_29_">
		</g>
	</g>
	<g id="XMLID_3_">
		<g id="XMLID_14_">
			<path id="XMLID_6_" class="st1" d="M120.2,116.6l1.1,1c0,0-0.8,2-2.7,0c0,0-0.9,0.8-1.9,0.9h-7.5c0,0-3-0.5-3.5-1.9
				c0,0-0.9-3.5,2.7-4.2c0,0-2-2-1.7-3.4c0.4-1.4,0.7-2.2,3.2-2.2c0.1,0,0.1,0,0.1,0v1.7c0,0-2.5,1.6,1.1,2.9l4-0.8l1.1,1
				c-0.6,0.5-1.3,1.1-2.3,1.6l4.1,2.4V113c0,0,1-1.3,2.2,0V116.6z M109.3,116.6h6.8l-5-3C111.1,113.7,105.1,114.7,109.3,116.6z"/>
			<path id="XMLID_5_" class="st1" d="M115.3,106.9c0,0,2.4,0.3,2.2,3.1c0,0-0.4,0.8-1.3,1.7l-1.1-1c0,0,0.7-1.6-0.6-2.1v-1.7
				C115,106.9,115.3,106.9,115.3,106.9z"/>
			<path id="XMLID_4_" class="st1" d="M114.5,106.9v1.7h-4.5v-1.7C111.7,106.9,113.5,106.9,114.5,106.9z"/>
		</g>
		<g id="XMLID_13_">
		</g>
	</g>
	<path id="XMLID_18_" class="st1" d="M142.8,118h22.2c0,0,1.9,1.8,1.8,3.5s-0.1,2.8-2.1,3.3l-22-0.2c0,0-8.6,0.6-8.6-3.9v-12.7
		c0,0,1.6-3.9,7.5-3.9h23.3c0,0,2-0.1,1.9,1.4c-0.1,1.5-0.1,1.6-1.7,1.6h-22c0,0-2.1,0.4-2.1,2v8.6C141,117.6,140.1,118,142.8,118z"
		/>
</g>
</svg>
