<?xml version="1.0" encoding="utf-8"?>
<!-- Generator: Adobe Illustrator 19.0.0, SVG Export Plug-In . SVG Version: 6.00 Build 0)  -->
<svg version="1.1" id="Capa_1" xmlns="http://www.w3.org/2000/svg" xmlns:xlink="http://www.w3.org/1999/xlink" x="0px" y="0px"
	 viewBox="-379 181 200 200" style="enable-background:new -379 181 200 200;" xml:space="preserve">
<style type="text/css">
	.st0{fill:#F0F0F0;}
</style>
<g id="XMLID_27_">
	<path id="XMLID_28_" class="st0" d="M-327.9,199.1c3.1,1.2,6.3,1.8,9.4,2.7c7.2,2,14.4,3.9,21.6,5.8c2.3,0.6,2.3,0.6,2.3,2.9
		c0,9.9,0.1,19.7,0.1,29.6c0,0.9,0.3,1.5,0.9,2.1c7.8,7.7,15.5,15.5,23.2,23.3c0.7,0.7,0.9,0.7,1.6,0c7.9-7.9,15.9-15.8,23.7-23.7
		c2-2,3.2-4.7,4.8-7.1c3.4-5.1,6.7-10.3,10-15.5c0.2-0.4,0.6-0.6,0.9-0.9c4.8-2.7,9.7-5.3,14.5-8.1c0.7-0.4,1.2-0.4,1.8,0.2
		c2.9,3,5.9,5.9,8.9,8.9c0.5,0.5,0.6,0.9,0.3,1.6c-2.7,4.8-5.4,9.6-8,14.4c-0.6,1.1-1.7,1.6-2.6,2.2c-6.1,4-12.2,7.9-18.3,11.8
		c-2.8,1.7-4.9,4.2-7.1,6.5c-5.7,5.5-11.2,11.2-16.8,16.8c-0.9,0.9-1.7,1.8-2.6,2.6c-0.5,0.5-0.5,0.8,0,1.2
		c3.4,3.4,6.8,6.8,10.2,10.3c4.1,4.1,8.1,8.2,12.2,12.3c4.5,4.6,9.1,9.1,13.7,13.7c5,5,9.9,10,14.9,15c1.6,1.6,3.3,3.2,4.7,5.1
		c3.1,4,3.2,10.1,0.3,14.1c-3.4,4.5-9,6.3-14,4.4c-2.5-1-4.4-2.7-6.3-4.5c-14.4-14.5-28.8-29-43.3-43.4c-3.2-3.2-6.3-6.4-9.5-9.6
		c-0.5-0.5-0.8-0.7-1.4,0c-2.6,2.7-5.3,5.3-8,7.9c-0.6,0.6-0.6,1,0,1.6c1.6,1.6,3.2,3.2,4.8,4.8c0.5,0.5,0.5,0.7,0,1.2
		c-2.8,2.7-5.5,5.5-8.2,8.2c-0.5,0.5-0.8,0.6-1.4,0c-0.7-0.7-1.3-2-2.2-1.9c-0.9,0.1-1,1.5-1.5,2.3c-3.2,4.8-6.9,9.2-10.9,13.3
		c-4.1,4.4-8.5,8.6-13.2,12.5c-3,2.4-5.9,5-9.5,6.6c-0.6,0.2-0.4,0.5,0,0.8c0.6,0.5,1.1,1.2,1.7,1.6c0.9,0.7,0.6,1.1,0,1.7
		c-2.9,2.8-5.7,5.7-8.5,8.6c-0.1,0-0.2,0-0.3,0c-0.5-0.3-1-0.7-1.4-1.1c-6.3-6.4-12.7-12.7-19.1-19.1c-1.6-1.6-1.5-1.8,0-3.3
		c2.2-2.3,4.5-4.5,6.7-6.8c1.4-1.4,1.7-1.4,3.1,0c1.2,1.2,1.2,1.2,2.1-0.3c2.5-4.1,5.6-7.8,8.8-11.3c4.6-5.2,9.6-10,14.9-14.5
		c3-2.6,6.1-5.1,9.6-7c0.5-0.3,0.6-0.6,0.2-1c-0.4-0.4-0.9-0.9-1.3-1.3c-0.6-0.6-0.6-1.2,0-1.8c2.7-2.7,5.4-5.4,8-8.1
		c0.7-0.7,1.4-0.8,2.1,0c1.4,1.4,2.9,2.8,4.2,4.3c0.7,0.7,1.1,0.7,1.8,0c2.3-2.3,4.5-4.6,6.8-6.9c1.1-1.1,1.1-1.3,0-2.4
		c-7.8-7.8-15.6-15.6-23.4-23.4c-0.6-0.6-1.3-0.8-2.1-0.8c-9.5,0-18.9,0-28.4,0c-2.1,0-2.2,0-2.7-2c-1.6-6.3-3.4-12.6-5-19
		c-1-3.8-1.9-7.5-3.1-11.2c-0.4-1.4-0.2-2.5,0.8-3.4c0.3-0.3,0.6-0.6,1-0.9c1.8-1.6,1.8-1.6,3.5,0.1c5,5,10,10,15,15
		c1.2,1.2,1.2,1.2,2.4,0c4.9-4.9,9.9-9.9,14.8-14.8c1.1-1.1,1.1-1.1,0-2.2c-5.1-5.1-10.1-10.1-15.2-15.2c-0.3-0.3-0.7-0.7-1-1.1
		c-0.4-0.5-0.4-1,0-1.4c1-0.9,1.9-2.1,3-2.9C-328.4,199.1-328.2,199.1-327.9,199.1z"/>
</g>
</svg>
