<?xml version="1.0" encoding="utf-8"?>
<!-- Generator: Adobe Illustrator 19.0.0, SVG Export Plug-In . SVG Version: 6.00 Build 0)  -->
<svg version="1.1" id="Capa_1" xmlns="http://www.w3.org/2000/svg" xmlns:xlink="http://www.w3.org/1999/xlink" x="0px" y="0px"
	 viewBox="0 0 200 200" style="enable-background:new 0 0 200 200;" xml:space="preserve">
<style type="text/css">
	.st0{fill:none;}
	.st1{fill:#F0F0F0;}
</style>
<g id="XMLID_99_">
	<polygon id="XMLID_124_" class="st0" points="111.4,70 83.1,128 90.7,128 118.7,70 	"/>
	<path id="XMLID_121_" class="st0" d="M94.7,85.7c0-4.8-1-8.3-3.1-10.6c-2.1-2.3-5-3.4-8.7-3.4c-3.6,0-6.4,1.1-8.5,3.4
		c-2.1,2.3-3.1,5.8-3.1,10.6c0,4.8,1,8.3,3.1,10.6c2.1,2.3,5,3.4,8.7,3.4c3.6,0,6.4-1.1,8.5-3.4C93.7,93.9,94.7,90.4,94.7,85.7z
		 M85.5,92.5c-0.6,0.9-1.4,1.3-2.5,1.3c-1.1,0-1.9-0.4-2.5-1.3c-0.8-1.2-1.2-3.5-1.2-6.9s0.4-5.8,1.2-6.9c0.6-0.9,1.4-1.3,2.5-1.3
		c1.1,0,1.9,0.4,2.5,1.3c0.8,1.2,1.2,3.5,1.2,6.9S86.2,91.4,85.5,92.5z"/>
	<path id="XMLID_118_" class="st0" d="M118.8,99.7c-3.6,0-6.5,1.1-8.6,3.4c-2.1,2.3-3.1,5.8-3.1,10.6c0,4.8,1,8.3,3.1,10.6
		c2.1,2.3,5,3.4,8.7,3.4c3.6,0,6.4-1.1,8.5-3.4c2.1-2.3,3.1-5.8,3.1-10.6c0-4.8-1-8.3-3.1-10.6C125.3,100.8,122.4,99.7,118.8,99.7z
		 M121.2,120.6c-0.6,0.9-1.4,1.3-2.5,1.3c-1.1,0-1.9-0.4-2.5-1.3c-0.8-1.2-1.2-3.5-1.2-6.9c0-3.4,0.4-5.8,1.2-6.9
		c0.6-0.9,1.4-1.3,2.5-1.3c1.1,0,1.9,0.4,2.5,1.3c0.8,1.2,1.2,3.5,1.2,6.9C122.4,117.1,122,119.4,121.2,120.6z"/>
	<path id="XMLID_113_" class="st1" d="M172.6,107.1L185,100l-12.4-7.2l10.8-9.4l-13.5-4.6l8.7-11.3l-14.2-1.9l6.3-12.8l-14.3,0.9
		l3.7-13.8l-13.8,3.7l0.9-14.3l-12.8,6.3l-1.9-14.2l-11.3,8.7l-4.6-13.5l-9.4,10.8L100,15l-7.1,12.4l-9.4-10.8l-4.6,13.5l-11.3-8.7
		l-1.9,14.2l-12.8-6.3l0.9,14.3l-13.8-3.7l3.7,13.8l-14.3-0.9l6.3,12.8l-14.2,1.9l8.7,11.3l-13.5,4.6l10.8,9.4L15,100l12.4,7.2
		l-10.8,9.4l13.5,4.6l-8.7,11.3l14.2,1.9l-6.3,12.8l14.3-0.9l-3.7,13.8l13.8-3.7l-0.9,14.3l12.8-6.3l1.9,14.2l11.3-8.7l4.6,13.5
		l9.4-10.7L100,185l7.2-12.4l9.4,10.8l4.6-13.5l11.3,8.7l1.9-14.2l12.8,6.3l-0.9-14.3l13.8,3.7l-3.7-13.8l14.3,0.9l-6.3-12.8
		l14.2-1.9l-8.7-11.3l13.5-4.6L172.6,107.1z M74.4,96.2c-2.1-2.3-3.1-5.8-3.1-10.6c0-4.7,1-8.3,3.1-10.6c2.1-2.3,4.9-3.4,8.5-3.4
		c3.7,0,6.6,1.1,8.7,3.4c2.1,2.3,3.1,5.8,3.1,10.6c0,4.8-1,8.3-3.1,10.6c-2.1,2.3-4.9,3.4-8.5,3.4C79.4,99.7,76.5,98.5,74.4,96.2z
		 M90.7,128h-7.5l28.2-58h7.3L90.7,128z M127.4,124.3c-2.1,2.3-4.9,3.4-8.5,3.4c-3.7,0-6.6-1.1-8.7-3.4c-2.1-2.3-3.1-5.8-3.1-10.6
		c0-4.8,1-8.3,3.1-10.6c2.1-2.3,4.9-3.4,8.6-3.4c3.6,0,6.5,1.1,8.6,3.4c2.1,2.3,3.1,5.8,3.1,10.6C130.5,118.5,129.4,122,127.4,124.3
		z"/>
	<path id="XMLID_112_" class="st1" d="M82.9,77.3c-1.1,0-1.9,0.4-2.5,1.3c-0.8,1.2-1.2,3.5-1.2,6.9s0.4,5.8,1.2,6.9
		c0.6,0.9,1.4,1.3,2.5,1.3c1.1,0,1.9-0.4,2.5-1.3c0.8-1.2,1.2-3.5,1.2-6.9s-0.4-5.8-1.2-6.9C84.8,77.8,84,77.3,82.9,77.3z"/>
	<path id="XMLID_111_" class="st1" d="M118.7,105.4c-1.1,0-1.9,0.4-2.5,1.3c-0.8,1.2-1.2,3.5-1.2,6.9c0,3.4,0.4,5.8,1.2,6.9
		c0.6,0.9,1.4,1.3,2.5,1.3c1.1,0,1.9-0.4,2.5-1.3c0.8-1.2,1.2-3.5,1.2-6.9c0-3.4-0.4-5.8-1.2-6.9
		C120.6,105.8,119.8,105.4,118.7,105.4z"/>
</g>
</svg>
