<?xml version="1.0" encoding="utf-8"?>
<!-- Generator: Adobe Illustrator 19.0.0, SVG Export Plug-In . SVG Version: 6.00 Build 0)  -->
<svg version="1.1" id="Capa_1" xmlns="http://www.w3.org/2000/svg" xmlns:xlink="http://www.w3.org/1999/xlink" x="0px" y="0px"
	 viewBox="0 0 200 200" style="enable-background:new 0 0 200 200;" xml:space="preserve">
<style type="text/css">
	.st0{fill:#F6F6F7;stroke:#4E4E4E;stroke-width:2.6539;stroke-miterlimit:10;}
	.st1{fill:#939393;}
</style>
<circle id="XMLID_7_" class="st0" cx="100" cy="100" r="86"/>
<g id="XMLID_3_">
	<path id="XMLID_28_" class="st1" d="M46.7,71.9c0.4-0.3,0.3-0.8,0.4-1.2c0.5-2.9,1.3-5.6,3.2-7.9c0.3-0.4,0.5-0.5,0.9-0.1
		c2.6,2.6,5.2,5.2,7.7,7.8c3.3,3.3,6.6,6.6,9.8,9.8c2.3,2.3,4.5,4.5,6.8,6.8c0.4,0.4,0.3,0.7,0.2,1.2c-0.8,2.6-0.8,5.2,0.1,7.8
		c0.6,1.8,1.8,3.3,3,4.7c4.8,5.4,9.8,10.6,15,15.5c2.3,2.1,4.5,4.3,7,6.2c3.2,2.6,6.9,3,10.8,1.9c0.7-0.2,1.1-0.1,1.6,0.4
		c2.9,3,5.9,5.9,8.8,8.8c3.3,3.3,6.5,6.5,9.8,9.8c1.8,1.8,3.5,3.5,5.3,5.3c0.5,0.5,0.6,0.8,0,1.3c-2.3,1.8-4.9,2.6-7.7,3.1
		c-0.5,0.1-1.1,0-1.6,0.3c-0.1,0-0.2,0-0.3,0c-0.1-0.1-0.2-0.1-0.4-0.1c-0.2,0-0.3-0.1-0.5,0.1c-0.3,0-0.6,0-0.9,0
		c-0.4-0.2-0.9,0-1.4-0.1c-0.5,0-0.9-0.1-1.4,0.1c-0.2,0-0.5,0-0.7,0c-0.1-0.1-0.2-0.1-0.3-0.1c-0.1,0-0.2,0-0.3,0.1
		c-0.2,0-0.5,0-0.7,0c-1.4-0.3-2.8-0.3-4.2-0.6c-5.3-1.1-10.3-2.9-15.1-5.4c-3.7-2-7.2-4.2-10.6-6.6c-3.7-2.6-7.2-5.5-10.6-8.4
		c-3.3-2.9-6.4-6-9.4-9.1c-3.6-3.7-6.9-7.7-9.9-11.8c-2.5-3.4-4.9-6.7-7-10.4c-1.9-3.2-3.5-6.5-4.7-10c-1.2-3.3-2-6.7-2.6-10.2
		c-0.1-0.7,0.1-1.4-0.2-2c0-0.2,0-0.5,0-0.7c0.1-0.1,0.1-0.2,0-0.3c0-0.3,0-0.6,0-0.9c0.2-0.4,0-0.7,0.1-1.1c-0.1-0.7,0.1-1.3-0.1-2
		c0-0.3,0-0.6,0-0.9c0.1-0.1,0.1-0.2,0-0.3C46.7,72.4,46.7,72.1,46.7,71.9z"/>
	<path id="XMLID_27_" class="st1" d="M68.7,46.7c2.1,0.9,3.3,2.7,4.9,4.2c5.2,5.2,10.3,10.4,15.6,15.5c2,2,2,4.4,0,6.3
		c-2.5,2.4-4.9,4.8-7.3,7.3c-0.4,0.4-0.8,0.8-1.1,1.3c-0.5,0.8-0.8,0.5-1.2,0c-6.7-6.7-13.4-13.4-20-20.1c-1.1-1.1-2.2-2.2-3.3-3.3
		c-0.4-0.4-0.5-0.7,0-1.1c3-2.9,5.9-5.9,8.8-8.8c0.5-0.5,1.3-0.8,1.9-1.3C67.4,46.7,68.1,46.7,68.7,46.7z"/>
	<path id="XMLID_26_" class="st1" d="M153.1,133c-0.2,1.1-1,1.8-1.7,2.6c-2.7,2.8-5.5,5.5-8.2,8.2c-0.4,0.4-0.7,0.5-1.1,0
		c-7.7-7.8-15.5-15.5-23.3-23.3c-0.7-0.7-0.8-0.7,0-1.5c2.9-2.6,5.5-5.4,8.3-8.2c2.2-2.2,4.3-2.2,6.4-0.1
		c6.1,6.1,12.1,12.2,18.2,18.2c0.7,0.7,1.1,1.5,1.6,2.2c0,0.3,0,0.6,0,0.9C153.1,132.4,153.3,132.8,153.1,133z"/>
	<path id="XMLID_21_" class="st1" d="M46.7,73.8c0.4,0.7,0.1,1.4,0.2,2c-0.1,0.1-0.1,0.1-0.2,0C46.7,75.1,46.7,74.5,46.7,73.8z"/>
	<path id="XMLID_17_" class="st1" d="M123,153.3c0.4-0.4,0.9-0.1,1.4-0.2c0.1,0,0.1,0.1,0.1,0.1c0,0,0,0.1-0.1,0.1
		C123.9,153.3,123.4,153.3,123,153.3z"/>
	<path id="XMLID_16_" class="st1" d="M124.3,153.3c0-0.1,0-0.1,0-0.2c0.5,0.1,0.9-0.2,1.4,0.2C125.3,153.3,124.8,153.3,124.3,153.3z
		"/>
	<path id="XMLID_15_" class="st1" d="M46.7,75.8c0.1,0,0.1,0,0.2,0c0,0.3,0.2,0.7-0.2,1C46.7,76.5,46.7,76.2,46.7,75.8z"/>
	<path id="XMLID_14_" class="st1" d="M153.1,133c0-0.3-0.1-0.6,0.2-0.9c0,0.3,0,0.6,0,0.9C153.2,133,153.2,133,153.1,133z"/>
	<path id="XMLID_13_" class="st1" d="M126.6,153.3c0.1-0.2,0.3-0.2,0.5-0.2c0.1,0,0.1,0.1,0.1,0.1c0,0,0,0.1-0.1,0.1
		C126.9,153.3,126.7,153.3,126.6,153.3z"/>
	<path id="XMLID_12_" class="st1" d="M46.7,72.6c0.3,0.1,0.3,0.2,0,0.3C46.7,72.8,46.7,72.7,46.7,72.6z"/>
	<path id="XMLID_11_" class="st1" d="M46.7,77.7c0.1,0,0.2,0.1,0.2,0.2c0,0.1-0.1,0.1-0.2,0.1C46.7,77.9,46.7,77.8,46.7,77.7z"/>
	<path id="XMLID_6_" class="st1" d="M121.6,153.3c0-0.3,0.2-0.2,0.3-0.2c0.1,0,0.1,0.1,0.1,0.1c0,0,0,0.1-0.1,0.1
		C121.8,153.3,121.7,153.3,121.6,153.3z"/>
	<path id="XMLID_5_" class="st1" d="M122,153.3c0-0.1,0-0.1,0-0.2c0.2,0,0.3-0.1,0.3,0.2C122.2,153.3,122.1,153.3,122,153.3z"/>
	<path id="XMLID_4_" class="st1" d="M127.1,153.3c0-0.1,0-0.1,0-0.2c0.1,0,0.3-0.1,0.3,0.2C127.3,153.3,127.2,153.3,127.1,153.3z"/>
</g>
</svg>
