<?xml version="1.0" encoding="utf-8"?>
<!-- Generator: Adobe Illustrator 19.0.0, SVG Export Plug-In . SVG Version: 6.00 Build 0)  -->
<svg version="1.1" id="Capa_1" xmlns="http://www.w3.org/2000/svg" xmlns:xlink="http://www.w3.org/1999/xlink" x="0px" y="0px"
	 viewBox="-452 254.6 53.4 53.4" style="enable-background:new -452 254.6 53.4 53.4;" xml:space="preserve">
<style type="text/css">
	.st0{fill:#69B176;}
	.st1{fill:#F0F0F0;}
</style>
<g id="XMLID_23_">
	<rect id="XMLID_61_" x="-452" y="254.6" class="st0" width="53.4" height="53.4"/>
	<g id="XMLID_27_">
		<g id="XMLID_35_">
			<g id="XMLID_78_">
				<path id="XMLID_7_" class="st1" d="M-421.3,286.3c-0.2-0.3-0.3-0.8-0.3-1.7c0-0.8,0.1-1.4,0.3-1.7c0.1-0.2,0.4-0.3,0.6-0.3
					c0.3,0,0.5,0.1,0.6,0.3c0.2,0.3,0.3,0.9,0.3,1.7s-0.1,1.4-0.3,1.7c-0.1,0.2-0.3,0.3-0.6,0.3C-421,286.7-421.2,286.5-421.3,286.3
					z"/>
				<path id="XMLID_2_" class="st1" d="M-422.8,282.1c-0.5,0.6-0.8,1.4-0.8,2.6c0,1.2,0.3,2,0.8,2.6c0.5,0.6,1.2,0.8,2.1,0.8
					c0.9,0,1.6-0.3,2.1-0.8c0.5-0.6,0.8-1.4,0.8-2.6c0-1.2-0.3-2-0.8-2.6s-1.2-0.8-2.1-0.8C-421.6,281.2-422.3,281.5-422.8,282.1z
					 M-422.5,274.7l-6.9,13.6h1.8l6.8-13.6H-422.5z M-431.5,280.4c0.5,0.6,1.2,0.8,2.1,0.8s1.6-0.3,2.1-0.8c0.5-0.6,0.8-1.4,0.8-2.6
					c0-1.2-0.3-2-0.8-2.6s-1.2-0.8-2.1-0.8s-1.6,0.3-2.1,0.8c-0.5,0.6-0.8,1.4-0.8,2.6C-432.3,279-432,279.8-431.5,280.4z
					 M-404.5,281.3l-3,1.7l2.6,2.3l-3.3,1.1l2.1,2.8l-3.5,0.5l1.5,3.1l-3.4-0.2l0.9,3.4l-3.4-0.9l0.2,3.5l-3.1-1.5l-0.5,3.5
					l-2.8-2.1l-1.1,3.3l-2.3-2.6l-1.7,3l-1.7-3l-2.3,2.6l-1.1-3.3l-2.8,2.1l-0.5-3.5l-3.1,1.5l0.2-3.5l-3.4,0.9l1-3.4l-3.5,0.2
					l1.5-3.1l-3.5-0.5l2.1-2.8l-3.3-1.1l2.7-2.2l-3-1.7l3-1.8l-2.6-2.3l3.3-1.1l-2.1-2.8l3.5-0.5l-1.6-3.1l3.5,0.2l-0.9-3.4l3.4,0.9
					l-0.2-3.5l3.1,1.6l0.5-3.5l2.8,2.1l1.1-3.3l2.2,2.7l1.7-3l1.7,3l2.3-2.6l1.1,3.3l2.8-2.1l0.5,3.5l3.1-1.5l-0.2,3.3l3.4-0.9
					l-0.9,3.4l3.5-0.2l-1.5,3.1l3.5,0.5l-2.1,2.8l3.3,1.1l-2.8,2.3L-404.5,281.3z"/>
				<path id="XMLID_1_" class="st1" d="M-430.4,277.8c0-0.8,0.1-1.4,0.3-1.7c0.2-0.2,0.4-0.3,0.6-0.3c0.3,0,0.5,0.1,0.6,0.3
					c0.2,0.3,0.3,0.8,0.3,1.7c0,0.9-0.1,1.4-0.3,1.7c-0.2,0.2-0.4,0.3-0.6,0.3c-0.3,0-0.5-0.1-0.6-0.3
					C-430.3,279.2-430.4,278.6-430.4,277.8z"/>
			</g>
			<g id="XMLID_79_">
			</g>
		</g>
	</g>
</g>
</svg>
