<?xml version="1.0" encoding="utf-8"?>
<!-- Generator: Adobe Illustrator 19.0.0, SVG Export Plug-In . SVG Version: 6.00 Build 0)  -->
<svg version="1.1" id="Capa_1" xmlns="http://www.w3.org/2000/svg" xmlns:xlink="http://www.w3.org/1999/xlink" x="0px" y="0px"
	 viewBox="0 0 200 200" style="enable-background:new 0 0 200 200;" xml:space="preserve">
<style type="text/css">
	.st0{fill:#0071BC;}
	.st1{fill:#FBB03B;}
	.st2{fill:#C1272D;}
</style>
<g id="XMLID_10_">
	<g id="XMLID_156_">
		<path id="XMLID_157_" class="st0" d="M165.2,138.2c3.6-2.2,7.2-4.3,10.7-6.4c8.7-5.3,11.2-15.3,5.9-23.9
			c-13.6-21.9-27-44-40.2-66.2c-3.2-5.4-6.3-10.9-9.3-16.5c-2.7-5.1-6.3-8.9-11.8-10.7c-2.9,0-5.8,0-8.6,0
			c-6.6,2.7-12.3,6.9-18.3,10.5C70.6,38.6,47.9,52.4,24.9,65.9C18.8,69.5,14.2,73.7,13,81c0,1,0,2,0,3c0.8,4.4,3.1,8,5.3,11.7
			c15.8,26.3,31.6,52.6,47.2,79.1c3.2,5.5,7.3,9.3,13.6,10.7c1.6,0,3.2,0,4.7,0c3.3-0.7,6.3-2.3,9.2-4.1c16-9.6,32.1-19.2,48.1-28.8
			L165.2,138.2z"/>
	</g>
	<g id="XMLID_149_">
		<g id="XMLID_155_">
			<path id="XMLID_7_" class="st1" d="M93.1,108.3v7.2c-0.4,1.4-2.3,1.9-2.3,1.9H68.3c0.1,2.2,3.5,2.7,3.5,2.7l6.2,0.1
				c1.7,0.8,1.6,3,1.6,3c0.1,1.3-1.7,2.3-1.7,2.3h-8.6c-5.3-0.2-7.7-5.8-7.7-5.8v-11c1.1-5.3,9-6,9-6h15.6
				C92,103.7,93.1,108.3,93.1,108.3z M86.8,111.4v-2.2c0,0-0.6-1.1-3.2-1c-2.7,0.1-13,0-13,0s-2.4,0.1-2.7,1.6v1.6H86.8z"/>
		</g>
		<g id="XMLID_154_">
		</g>
	</g>
	<g id="XMLID_139_">
		<g id="XMLID_148_">
			<path id="XMLID_4_" class="st1" d="M111,114.4c0,0-6,1.1-1.9,3h6.8L111,114.4z M113.7,114.1l4.1,2.4v-2.7c0,0,1-1.3,2.2,0v3.6
				l1.1,1c0,0-0.8,2-2.7,0c0,0-0.9,0.8-1.9,0.9h-7.5c0,0-3-0.5-3.5-1.9c0,0-0.9-3.5,2.7-4.2c0,0-2-2-1.7-3.4
				c0.4-1.4,0.7-2.2,3.2-2.2c0.1,0,0.1,0,0.1,0v1.7c0,0-2.5,1.6,1.1,2.9l4-0.8l1.1,1C115.5,113,114.7,113.6,113.7,114.1z"/>
			<path id="XMLID_3_" class="st1" d="M117.3,110.8c0,0-0.4,0.8-1.3,1.7l-1.1-1c0,0,0.7-1.6-0.6-2.1v-1.7c0.5,0,0.8,0,0.8,0
				S117.6,108,117.3,110.8z"/>
			<path id="XMLID_2_" class="st1" d="M114.4,107.7v1.7h-4.5v-1.7C111.6,107.7,113.4,107.7,114.4,107.7z"/>
		</g>
		<g id="XMLID_147_">
		</g>
	</g>
	<path id="XMLID_138_" class="st1" d="M142.6,120.1h22.2c0,0,1.9,1.2,1.8,2.8s-0.1,2.4-2.1,3l-21.9-0.4c0,0-7.3,0.4-8.5-4.1v-12.7
		c0,0,1.4-5.7,7.2-6h23.3c0,0,2,1.1,1.9,2.6s-0.1,2.4-1.7,2.8H143c0,0-2.7,0.1-3,1.8v8.6C140,118.4,139.9,120.1,142.6,120.1z"/>
	<path id="XMLID_514_" class="st2" d="M150.2,146.8c0,0-0.8,4,1,4s2.9,0,2.9,0l2.4-1.4v1.4h5.1l3.2-10.4l-2.7-0.4l-3.2,1.9l-1.4,4.6
		c0,0-0.7,1.7-1.9-0.1l0.7-2.9L150.2,146.8z"/>
	<path id="XMLID_513_" class="st2" d="M163,149.6l1.9-2.6c0,0,2.3,1.9,3.5,1.3c0,0,1.3-0.7-0.7-1.9s-2-1.2-2-1.2s-1.1-2.8,0.9-3.9
		s4.9-1.6,7.8-1.2l1.7,1l-2.1,2.3l-1.2-0.6c0,0-1.2-0.9-2,0c-0.8,0.9,1.7,1.3,1.7,1.3s2.9,1.5,1.6,3.6s-1.9,2.7-3.6,3.2
		c0,0-3.5,0.3-4.7,0L163,149.6z"/>
	<path id="XMLID_512_" class="st2" d="M173.9,149.6l1.9-2.6c0,0,2.3,1.9,3.5,1.3c0,0,1.3-0.7-0.7-1.9s-2-1.2-2-1.2s-1.1-2.8,0.9-3.9
		s4.9-1.6,7.8-1.2l1.7,1l-2.1,2.3l-1.2-0.6c0,0-1.2-0.9-2,0c-0.8,0.9,1.7,1.3,1.7,1.3s2.9,1.5,1.6,3.6s-1.9,2.7-3.6,3.2
		c0,0-3.5,0.3-4.7,0L173.9,149.6z"/>
	<polygon id="XMLID_511_" class="st2" points="144.4,150.6 148.4,148.3 147.7,150.9 	"/>
	<g id="XMLID_504_">
		<g id="XMLID_509_">
			<path id="XMLID_1_" class="st2" d="M141.4,137.2c0,0,5.3,2.2,1.4,6.8c-3.9,4.6-6.8,1.6-6.8,1.6l-1.9,5.2h-6.3l4.2-13.6H141.4z"/>
		</g>
		<g id="XMLID_508_">
		</g>
	</g>
	<path id="XMLID_503_" class="st0" d="M136.3,142.7l0.7-2.3c0,0,1.2-0.1,1.2,1.2S136.3,142.7,136.3,142.7z"/>
	<polygon id="XMLID_502_" class="st2" points="142,150.8 146.2,137.2 151.7,137.2 148.4,148.3 144.2,150.8 	"/>
	<polygon id="XMLID_501_" class="st2" points="150.2,147 156.4,143.5 157.4,140.2 152.3,139.9 	"/>
	<polygon id="XMLID_500_" class="st2" points="159.4,140.1 162.1,140.1 158.9,142 	"/>
</g>
</svg>
