<?xml version="1.0" encoding="utf-8"?>
<!-- Generator: Adobe Illustrator 19.0.0, SVG Export Plug-In . SVG Version: 6.00 Build 0)  -->
<svg version="1.1" id="Capa_1" xmlns="http://www.w3.org/2000/svg" xmlns:xlink="http://www.w3.org/1999/xlink" x="0px" y="0px"
	 viewBox="0 0 200 200" style="enable-background:new 0 0 200 200;" xml:space="preserve">
<style type="text/css">
	.st0{fill:#B3B3B3;}
	.st1{fill:#4D4D4D;}
	.st2{fill:#808080;}
</style>
<g id="XMLID_1_">
	<path id="XMLID_2_" class="st0" d="M100,26.9c-30.2,0-54.7,24.5-54.7,54.7s24.5,54.7,54.7,54.7s54.7-24.5,54.7-54.7
		S130.2,26.9,100,26.9z M100,108.9l-9.7-9.7c5.3-5.3,14-5.3,19.3,0L100,108.9z M114.5,94.4c-8-8-21-8-29,0l-9.7-9.7
		c13.3-13.3,35-13.3,48.4,0L114.5,94.4z M129,79.9c-16-16-42-16-58,0l-9.7-9.7c21.3-21.3,56.1-21.3,77.4,0L129,79.9z"/>
</g>
<g id="XMLID_8_">
	<path id="XMLID_9_" class="st1" d="M30.6,153.1c0.6,0.3,1.4,0.6,2.3,0.6c1.1,0,1.7-0.5,1.7-1.3c0-0.7-0.5-1.1-1.7-1.6
		c-1.6-0.6-2.5-1.4-2.5-2.7c0-1.5,1.3-2.7,3.3-2.7c1,0,1.8,0.2,2.3,0.5l-0.4,1.4c-0.3-0.2-1-0.4-1.9-0.4c-1.1,0-1.6,0.6-1.6,1.1
		c0,0.7,0.5,1.1,1.8,1.6c1.6,0.6,2.4,1.4,2.4,2.8c0,1.5-1.1,2.8-3.6,2.8c-1,0-2-0.3-2.5-0.6L30.6,153.1z"/>
	<path id="XMLID_11_" class="st1" d="M39.6,146.2c0,0.5-0.4,0.9-1,0.9c-0.6,0-1-0.4-1-0.9c0-0.5,0.4-0.9,1-0.9
		C39.2,145.3,39.6,145.7,39.6,146.2z M37.8,155v-6.8h1.7v6.8H37.8z"/>
	<path id="XMLID_14_" class="st1" d="M41.4,150.2c0-0.8,0-1.4-0.1-2h1.5l0.1,1h0c0.3-0.5,1-1.2,2.2-1.2c1.2,0,2.4,0.8,2.4,2.9v4
		h-1.7v-3.9c0-1-0.4-1.7-1.3-1.7c-0.7,0-1.2,0.5-1.3,1c-0.1,0.2-0.1,0.4-0.1,0.6v4h-1.7V150.2z"/>
	<path id="XMLID_16_" class="st1" d="M59.1,154.7c-0.4,0.2-1.3,0.4-2.4,0.4c-3,0-4.8-1.9-4.8-4.7c0-3.1,2.2-5,5-5
		c1.1,0,1.9,0.2,2.3,0.4l-0.4,1.4c-0.4-0.2-1.1-0.4-1.8-0.4c-1.9,0-3.3,1.2-3.3,3.5c0,2.1,1.2,3.4,3.3,3.4c0.7,0,1.4-0.1,1.9-0.3
		L59.1,154.7z"/>
	<path id="XMLID_18_" class="st1" d="M66.8,151.5c0,2.5-1.8,3.6-3.5,3.6c-1.9,0-3.4-1.3-3.4-3.5c0-2.2,1.5-3.6,3.5-3.6
		C65.4,148,66.8,149.4,66.8,151.5z M61.6,151.6c0,1.3,0.6,2.3,1.7,2.3c1,0,1.7-1,1.7-2.3c0-1.1-0.5-2.3-1.7-2.3
		C62.1,149.3,61.6,150.4,61.6,151.6z"/>
	<path id="XMLID_21_" class="st1" d="M68.2,150.2c0-0.8,0-1.4-0.1-2h1.5l0.1,1h0c0.3-0.5,1-1.2,2.2-1.2c1.2,0,2.4,0.8,2.4,2.9v4
		h-1.7v-3.9c0-1-0.4-1.7-1.3-1.7c-0.7,0-1.2,0.5-1.3,1c-0.1,0.2-0.1,0.4-0.1,0.6v4h-1.7V150.2z"/>
	<path id="XMLID_23_" class="st1" d="M77.4,152c0,1.2,1,1.8,2.1,1.8c0.8,0,1.4-0.1,1.9-0.3l0.3,1.2c-0.6,0.2-1.4,0.4-2.4,0.4
		c-2.2,0-3.5-1.4-3.5-3.4c0-1.9,1.1-3.7,3.3-3.7c2.2,0,2.9,1.8,2.9,3.3c0,0.3,0,0.6-0.1,0.7H77.4z M80.4,150.8
		c0-0.6-0.3-1.7-1.4-1.7c-1.1,0-1.5,1-1.6,1.7H80.4z"/>
	<path id="XMLID_26_" class="st1" d="M84.5,148.1l0.8,1.3c0.2,0.4,0.4,0.7,0.6,1.1h0c0.2-0.4,0.4-0.7,0.6-1.1l0.8-1.3h1.9l-2.3,3.3
		l2.3,3.5h-1.9l-0.8-1.4c-0.2-0.4-0.4-0.7-0.6-1.1h0c-0.2,0.4-0.4,0.7-0.6,1.1l-0.8,1.4h-1.9l2.4-3.5l-2.3-3.3H84.5z"/>
	<path id="XMLID_28_" class="st1" d="M92.1,146.2c0,0.5-0.4,0.9-1,0.9c-0.6,0-1-0.4-1-0.9c0-0.5,0.4-0.9,1-0.9
		C91.7,145.3,92,145.7,92.1,146.2z M90.2,155v-6.8H92v6.8H90.2z"/>
	<path id="XMLID_31_" class="st1" d="M100.3,151.5c0,2.5-1.8,3.6-3.5,3.6c-1.9,0-3.4-1.3-3.4-3.5c0-2.2,1.5-3.6,3.5-3.6
		C98.9,148,100.3,149.4,100.3,151.5z M95.2,151.6c0,1.3,0.6,2.3,1.7,2.3c1,0,1.7-1,1.7-2.3c0-1.1-0.5-2.3-1.7-2.3
		C95.6,149.3,95.2,150.4,95.2,151.6z"/>
	<path id="XMLID_34_" class="st1" d="M101.7,150.2c0-0.8,0-1.4-0.1-2h1.5l0.1,1h0c0.3-0.5,1-1.2,2.2-1.2c1.2,0,2.4,0.8,2.4,2.9v4
		h-1.7v-3.9c0-1-0.4-1.7-1.3-1.7c-0.7,0-1.2,0.5-1.3,1c-0.1,0.2-0.1,0.4-0.1,0.6v4h-1.7V150.2z"/>
	<path id="XMLID_36_" class="st1" d="M116.4,155l-0.1-0.8h0c-0.4,0.5-1.1,0.9-2,0.9c-1.4,0-2.1-1-2.1-2c0-1.7,1.5-2.6,4-2.6v-0.1
		c0-0.4-0.2-1.2-1.4-1.2c-0.7,0-1.4,0.2-1.8,0.5l-0.3-1.1c0.5-0.3,1.4-0.6,2.5-0.6c2.2,0,2.8,1.4,2.8,2.9v2.5c0,0.6,0,1.2,0.1,1.6
		H116.4z M116.2,151.6c-1.2,0-2.4,0.2-2.4,1.3c0,0.7,0.4,1,1,1c0.7,0,1.2-0.4,1.3-0.9c0-0.1,0.1-0.3,0.1-0.4V151.6z"/>
	<path id="XMLID_39_" class="st1" d="M124.5,146.2c0,0.5-0.4,0.9-1,0.9c-0.6,0-1-0.4-1-0.9c0-0.5,0.4-0.9,1-0.9
		C124.1,145.3,124.4,145.7,124.5,146.2z M122.6,155v-6.8h1.7v6.8H122.6z"/>
	<path id="XMLID_42_" class="st1" d="M126.2,150.2c0-0.8,0-1.4-0.1-2h1.5l0.1,1h0c0.3-0.5,1-1.2,2.2-1.2c1.2,0,2.4,0.8,2.4,2.9v4
		h-1.7v-3.9c0-1-0.4-1.7-1.3-1.7c-0.7,0-1.2,0.5-1.3,1c-0.1,0.2-0.1,0.4-0.1,0.6v4h-1.7V150.2z"/>
	<path id="XMLID_44_" class="st1" d="M136.1,146.2v1.9h1.6v1.3h-1.6v3c0,0.8,0.2,1.3,0.9,1.3c0.3,0,0.5,0,0.7-0.1l0,1.3
		c-0.3,0.1-0.7,0.2-1.2,0.2c-0.6,0-1.2-0.2-1.5-0.6c-0.4-0.4-0.5-1-0.5-1.9v-3.2h-1v-1.3h1v-1.5L136.1,146.2z"/>
	<path id="XMLID_46_" class="st1" d="M140.2,152c0,1.2,1,1.8,2.1,1.8c0.8,0,1.4-0.1,1.9-0.3l0.3,1.2c-0.6,0.2-1.4,0.4-2.4,0.4
		c-2.2,0-3.5-1.4-3.5-3.4c0-1.9,1.1-3.7,3.3-3.7c2.2,0,2.9,1.8,2.9,3.3c0,0.3,0,0.6-0.1,0.7H140.2z M143.2,150.8
		c0-0.6-0.3-1.7-1.4-1.7c-1.1,0-1.5,1-1.6,1.7H143.2z"/>
	<path id="XMLID_49_" class="st1" d="M146.2,150.3c0-0.9,0-1.6-0.1-2.2h1.5l0.1,1.3h0.1c0.3-1,1.1-1.5,1.9-1.5c0.2,0,0.3,0,0.4,0
		v1.6c-0.1,0-0.3-0.1-0.5-0.1c-0.8,0-1.4,0.5-1.5,1.3c0,0.2-0.1,0.3-0.1,0.5v3.5h-1.7V150.3z"/>
	<path id="XMLID_51_" class="st1" d="M151.2,150.2c0-0.8,0-1.4-0.1-2h1.5l0.1,1h0c0.3-0.5,1-1.2,2.2-1.2c1.2,0,2.4,0.8,2.4,2.9v4
		h-1.7v-3.9c0-1-0.4-1.7-1.3-1.7c-0.7,0-1.2,0.5-1.3,1c-0.1,0.2-0.1,0.4-0.1,0.6v4h-1.7V150.2z"/>
	<path id="XMLID_53_" class="st1" d="M160.4,152c0,1.2,1,1.8,2.1,1.8c0.8,0,1.4-0.1,1.9-0.3l0.3,1.2c-0.6,0.2-1.4,0.4-2.4,0.4
		c-2.2,0-3.5-1.4-3.5-3.4c0-1.9,1.1-3.7,3.3-3.7c2.2,0,2.9,1.8,2.9,3.3c0,0.3,0,0.6-0.1,0.7H160.4z M163.4,150.8
		c0-0.6-0.3-1.7-1.4-1.7c-1.1,0-1.5,1-1.6,1.7H163.4z"/>
	<path id="XMLID_56_" class="st1" d="M168.4,146.2v1.9h1.6v1.3h-1.6v3c0,0.8,0.2,1.3,0.9,1.3c0.3,0,0.5,0,0.7-0.1l0,1.3
		c-0.3,0.1-0.7,0.2-1.2,0.2c-0.6,0-1.2-0.2-1.5-0.6c-0.4-0.4-0.5-1-0.5-1.9v-3.2h-1v-1.3h1v-1.5L168.4,146.2z"/>
	<path id="XMLID_58_" class="st2" d="M18.8,165.3c0-0.7,0-1.2,0-1.7h1.3l0.1,0.9h0c0.3-0.5,0.9-1,1.9-1c1,0,2.1,0.7,2.1,2.5v3.5
		h-1.5v-3.3c0-0.8-0.3-1.5-1.1-1.5c-0.6,0-1,0.4-1.2,0.9c0,0.1-0.1,0.3-0.1,0.5v3.4h-1.5V165.3z"/>
	<path id="XMLID_60_" class="st2" d="M26.7,166.9c0,1.1,0.9,1.5,1.8,1.5c0.7,0,1.2-0.1,1.6-0.3l0.2,1c-0.5,0.2-1.2,0.4-2,0.4
		c-1.9,0-3-1.2-3-3c0-1.6,1-3.1,2.9-3.1c1.9,0,2.5,1.6,2.5,2.8c0,0.3,0,0.5,0,0.6H26.7z M29.3,165.8c0-0.5-0.2-1.4-1.2-1.4
		c-0.9,0-1.3,0.8-1.4,1.4H29.3z"/>
	<path id="XMLID_63_" class="st2" d="M36.2,169.2c-0.3,0.1-0.9,0.3-1.7,0.3c-1.8,0-3-1.2-3-3c0-1.8,1.2-3.1,3.3-3.1
		c0.5,0,1.1,0.1,1.4,0.3l-0.3,1.1c-0.2-0.1-0.6-0.2-1.1-0.2c-1.1,0-1.8,0.8-1.8,1.9c0,1.2,0.8,1.9,1.8,1.9c0.5,0,0.9-0.1,1.2-0.2
		L36.2,169.2z"/>
	<path id="XMLID_65_" class="st2" d="M38.2,166.9c0,1.1,0.9,1.5,1.8,1.5c0.7,0,1.2-0.1,1.6-0.3l0.2,1c-0.5,0.2-1.2,0.4-2,0.4
		c-1.9,0-3-1.2-3-3c0-1.6,1-3.1,2.9-3.1c1.9,0,2.5,1.6,2.5,2.8c0,0.3,0,0.5,0,0.6H38.2z M40.8,165.8c0-0.5-0.2-1.4-1.2-1.4
		c-0.9,0-1.3,0.8-1.4,1.4H40.8z"/>
	<path id="XMLID_68_" class="st2" d="M43.3,168c0.3,0.2,1,0.4,1.5,0.4c0.6,0,0.9-0.3,0.9-0.6c0-0.4-0.2-0.6-1-0.9
		c-1.1-0.4-1.6-1-1.6-1.7c0-1,0.9-1.8,2.2-1.8c0.6,0,1.2,0.2,1.5,0.3l-0.3,1c-0.3-0.1-0.7-0.3-1.2-0.3c-0.5,0-0.8,0.3-0.8,0.6
		c0,0.4,0.3,0.6,1,0.8c1.1,0.4,1.5,0.9,1.6,1.8c0,1.1-0.8,1.8-2.4,1.8c-0.7,0-1.3-0.2-1.8-0.4L43.3,168z"/>
	<path id="XMLID_70_" class="st2" d="M49.9,161.9c0,0.4-0.3,0.8-0.8,0.8c-0.5,0-0.8-0.3-0.8-0.8c0-0.5,0.3-0.8,0.8-0.8
		C49.6,161.1,49.9,161.4,49.9,161.9z M48.3,169.4v-5.8h1.5v5.8H48.3z"/>
	<path id="XMLID_73_" class="st2" d="M53.1,161.9v1.7h1.4v1.1h-1.4v2.6c0,0.7,0.2,1.1,0.8,1.1c0.3,0,0.4,0,0.6-0.1l0,1.1
		c-0.2,0.1-0.6,0.1-1.1,0.1c-0.5,0-1-0.2-1.3-0.5c-0.3-0.3-0.5-0.9-0.5-1.6v-2.7h-0.8v-1.1h0.8v-1.3L53.1,161.9z"/>
	<path id="XMLID_75_" class="st2" d="M58.9,169.4l-0.1-0.6h0c-0.4,0.5-1,0.8-1.7,0.8c-1.2,0-1.8-0.9-1.8-1.7c0-1.5,1.3-2.2,3.5-2.2
		v-0.1c0-0.4-0.2-1-1.2-1c-0.6,0-1.2,0.2-1.6,0.4l-0.3-1c0.4-0.3,1.2-0.5,2.1-0.5c1.9,0,2.4,1.2,2.4,2.5v2.1c0,0.5,0,1,0.1,1.4H58.9
		z M58.7,166.5c-1,0-2,0.2-2,1.1c0,0.6,0.4,0.8,0.8,0.8c0.6,0,1-0.4,1.2-0.8c0-0.1,0-0.2,0-0.3V166.5z"/>
	<path id="XMLID_78_" class="st2" d="M61.7,168c0.3,0.2,1,0.4,1.5,0.4c0.6,0,0.9-0.3,0.9-0.6c0-0.4-0.2-0.6-1-0.9
		c-1.1-0.4-1.6-1-1.6-1.7c0-1,0.9-1.8,2.2-1.8c0.6,0,1.2,0.2,1.5,0.3l-0.3,1c-0.3-0.1-0.7-0.3-1.2-0.3c-0.5,0-0.8,0.3-0.8,0.6
		c0,0.4,0.3,0.6,1,0.8c1.1,0.4,1.5,0.9,1.6,1.8c0,1.1-0.8,1.8-2.4,1.8c-0.7,0-1.3-0.2-1.8-0.4L61.7,168z"/>
	<path id="XMLID_80_" class="st2" d="M70.8,161.9c0,0.4-0.3,0.8-0.8,0.8c-0.5,0-0.8-0.3-0.8-0.8c0-0.5,0.3-0.8,0.8-0.8
		C70.5,161.1,70.8,161.4,70.8,161.9z M69.2,169.4v-5.8h1.5v5.8H69.2z"/>
	<path id="XMLID_83_" class="st2" d="M72.3,165.3c0-0.7,0-1.2,0-1.7h1.3l0.1,0.9h0c0.3-0.5,0.9-1,1.9-1c1,0,2.1,0.7,2.1,2.5v3.5
		h-1.5v-3.3c0-0.8-0.3-1.5-1.1-1.5c-0.6,0-1,0.4-1.2,0.9c0,0.1-0.1,0.3-0.1,0.5v3.4h-1.5V165.3z"/>
	<path id="XMLID_85_" class="st2" d="M80.8,161.9v1.7h1.4v1.1h-1.4v2.6c0,0.7,0.2,1.1,0.8,1.1c0.3,0,0.4,0,0.6-0.1l0,1.1
		c-0.2,0.1-0.6,0.1-1.1,0.1c-0.5,0-1-0.2-1.3-0.5c-0.3-0.3-0.5-0.9-0.5-1.6v-2.7h-0.8v-1.1h0.8v-1.3L80.8,161.9z"/>
	<path id="XMLID_87_" class="st2" d="M84.3,166.9c0,1.1,0.9,1.5,1.8,1.5c0.7,0,1.2-0.1,1.6-0.3l0.2,1c-0.5,0.2-1.2,0.4-2,0.4
		c-1.9,0-3-1.2-3-3c0-1.6,1-3.1,2.9-3.1c1.9,0,2.5,1.6,2.5,2.8c0,0.3,0,0.5,0,0.6H84.3z M86.8,165.8c0-0.5-0.2-1.4-1.2-1.4
		c-0.9,0-1.3,0.8-1.4,1.4H86.8z"/>
	<path id="XMLID_90_" class="st2" d="M89.4,165.4c0-0.8,0-1.4,0-1.9h1.3l0,1.1h0c0.3-0.8,1-1.2,1.6-1.2c0.1,0,0.2,0,0.3,0v1.4
		c-0.1,0-0.3,0-0.4,0c-0.7,0-1.2,0.5-1.3,1.1c0,0.1,0,0.3,0,0.5v3h-1.5V165.4z"/>
	<path id="XMLID_92_" class="st2" d="M93.7,165.3c0-0.7,0-1.2,0-1.7h1.3l0.1,0.9h0c0.3-0.5,0.9-1,1.9-1c1,0,2.1,0.7,2.1,2.5v3.5
		h-1.5v-3.3c0-0.8-0.3-1.5-1.1-1.5c-0.6,0-1,0.4-1.2,0.9c0,0.1-0.1,0.3-0.1,0.5v3.4h-1.5V165.3z"/>
	<path id="XMLID_94_" class="st2" d="M101.6,166.9c0,1.1,0.9,1.5,1.8,1.5c0.7,0,1.2-0.1,1.6-0.3l0.2,1c-0.5,0.2-1.2,0.4-2,0.4
		c-1.9,0-3-1.2-3-3c0-1.6,1-3.1,2.9-3.1c1.9,0,2.5,1.6,2.5,2.8c0,0.3,0,0.5,0,0.6H101.6z M104.2,165.8c0-0.5-0.2-1.4-1.2-1.4
		c-0.9,0-1.3,0.8-1.4,1.4H104.2z"/>
	<path id="XMLID_97_" class="st2" d="M108.4,161.9v1.7h1.4v1.1h-1.4v2.6c0,0.7,0.2,1.1,0.8,1.1c0.3,0,0.4,0,0.6-0.1l0,1.1
		c-0.2,0.1-0.6,0.1-1.1,0.1c-0.5,0-1-0.2-1.3-0.5c-0.3-0.3-0.5-0.9-0.5-1.6v-2.7h-0.8v-1.1h0.8v-1.3L108.4,161.9z"/>
	<path id="XMLID_99_" class="st2" d="M113.4,165.5c0-0.8,0-1.4,0-1.9h1.3l0.1,0.9h0c0.4-0.7,1.1-1,2-1c1.3,0,2.5,1.2,2.5,3
		c0,2.1-1.3,3.1-2.7,3.1c-0.7,0-1.3-0.3-1.6-0.8h0v3h-1.5V165.5z M114.9,166.9c0,0.1,0,0.3,0,0.4c0.1,0.6,0.7,1,1.3,1
		c0.9,0,1.5-0.8,1.5-1.9c0-1-0.5-1.9-1.5-1.9c-0.6,0-1.2,0.4-1.3,1.1c0,0.1-0.1,0.3-0.1,0.4V166.9z"/>
	<path id="XMLID_102_" class="st2" d="M123.8,169.4l-0.1-0.6h0c-0.4,0.5-1,0.8-1.7,0.8c-1.2,0-1.8-0.9-1.8-1.7
		c0-1.5,1.3-2.2,3.5-2.2v-0.1c0-0.4-0.2-1-1.2-1c-0.6,0-1.2,0.2-1.6,0.4l-0.3-1c0.4-0.3,1.2-0.5,2.1-0.5c1.9,0,2.4,1.2,2.4,2.5v2.1
		c0,0.5,0,1,0.1,1.4H123.8z M123.6,166.5c-1,0-2,0.2-2,1.1c0,0.6,0.4,0.8,0.8,0.8c0.6,0,1-0.4,1.2-0.8c0-0.1,0-0.2,0-0.3V166.5z"/>
	<path id="XMLID_105_" class="st2" d="M126.6,165.4c0-0.8,0-1.4,0-1.9h1.3l0,1.1h0c0.3-0.8,1-1.2,1.6-1.2c0.1,0,0.2,0,0.3,0v1.4
		c-0.1,0-0.3,0-0.4,0c-0.7,0-1.2,0.5-1.3,1.1c0,0.1,0,0.3,0,0.5v3h-1.5V165.4z"/>
	<path id="XMLID_107_" class="st2" d="M134,169.4l-0.1-0.6h0c-0.4,0.5-1,0.8-1.7,0.8c-1.2,0-1.8-0.9-1.8-1.7c0-1.5,1.3-2.2,3.5-2.2
		v-0.1c0-0.4-0.2-1-1.2-1c-0.6,0-1.2,0.2-1.6,0.4l-0.3-1c0.4-0.3,1.2-0.5,2.1-0.5c1.9,0,2.4,1.2,2.4,2.5v2.1c0,0.5,0,1,0.1,1.4H134z
		 M133.8,166.5c-1,0-2,0.2-2,1.1c0,0.6,0.4,0.8,0.8,0.8c0.6,0,1-0.4,1.2-0.8c0-0.1,0-0.2,0-0.3V166.5z"/>
	<path id="XMLID_110_" class="st2" d="M140.2,163.5l0.9,3c0.2,0.5,0.3,1,0.4,1.5h0c0.1-0.5,0.2-0.9,0.4-1.5l0.9-3h1.6l-2.2,5.8h-1.5
		l-2.2-5.8H140.2z"/>
	<path id="XMLID_112_" class="st2" d="M146.3,166.9c0,1.1,0.9,1.5,1.8,1.5c0.7,0,1.2-0.1,1.6-0.3l0.2,1c-0.5,0.2-1.2,0.4-2,0.4
		c-1.9,0-3-1.2-3-3c0-1.6,1-3.1,2.9-3.1c1.9,0,2.5,1.6,2.5,2.8c0,0.3,0,0.5,0,0.6H146.3z M148.9,165.8c0-0.5-0.2-1.4-1.2-1.4
		c-0.9,0-1.3,0.8-1.4,1.4H148.9z"/>
	<path id="XMLID_115_" class="st2" d="M151.4,165.4c0-0.8,0-1.4,0-1.9h1.3l0,1.1h0c0.3-0.8,1-1.2,1.6-1.2c0.1,0,0.2,0,0.3,0v1.4
		c-0.1,0-0.3,0-0.4,0c-0.7,0-1.2,0.5-1.3,1.1c0,0.1,0,0.3,0,0.5v3h-1.5V165.4z"/>
	<path id="XMLID_117_" class="st2" d="M159.2,166.9c0,1.1,0.9,1.5,1.8,1.5c0.7,0,1.2-0.1,1.6-0.3l0.2,1c-0.5,0.2-1.2,0.4-2,0.4
		c-1.9,0-3-1.2-3-3c0-1.6,1-3.1,2.9-3.1c1.9,0,2.5,1.6,2.5,2.8c0,0.3,0,0.5,0,0.6H159.2z M161.8,165.8c0-0.5-0.2-1.4-1.2-1.4
		c-0.9,0-1.3,0.8-1.4,1.4H161.8z"/>
	<path id="XMLID_120_" class="st2" d="M164.3,168c0.3,0.2,1,0.4,1.5,0.4c0.6,0,0.9-0.3,0.9-0.6c0-0.4-0.2-0.6-1-0.9
		c-1.1-0.4-1.6-1-1.6-1.7c0-1,0.9-1.8,2.2-1.8c0.6,0,1.2,0.2,1.5,0.3l-0.3,1c-0.3-0.1-0.7-0.3-1.2-0.3c-0.5,0-0.8,0.3-0.8,0.6
		c0,0.4,0.3,0.6,1,0.8c1.1,0.4,1.5,0.9,1.6,1.8c0,1.1-0.8,1.8-2.4,1.8c-0.7,0-1.3-0.2-1.8-0.4L164.3,168z"/>
	<path id="XMLID_122_" class="st2" d="M171.1,161.9v1.7h1.4v1.1h-1.4v2.6c0,0.7,0.2,1.1,0.8,1.1c0.3,0,0.4,0,0.6-0.1l0,1.1
		c-0.2,0.1-0.6,0.1-1.1,0.1c-0.5,0-1-0.2-1.3-0.5c-0.3-0.3-0.5-0.9-0.5-1.6v-2.7h-0.8v-1.1h0.8v-1.3L171.1,161.9z"/>
	<path id="XMLID_124_" class="st2" d="M179.1,166.4c0,2.1-1.5,3.1-3,3.1c-1.7,0-2.9-1.1-2.9-3c0-1.9,1.3-3.1,3-3.1
		C177.9,163.4,179.1,164.6,179.1,166.4z M174.7,166.5c0,1.1,0.6,2,1.5,2c0.8,0,1.4-0.8,1.4-2c0-0.9-0.4-2-1.4-2
		C175.1,164.5,174.7,165.5,174.7,166.5z"/>
	<path id="XMLID_127_" class="st2" d="M179.8,168.6c0-0.6,0.4-0.9,0.9-0.9c0.5,0,0.9,0.4,0.9,0.9c0,0.5-0.4,0.9-0.9,0.9
		C180.1,169.5,179.8,169.1,179.8,168.6z"/>
</g>
</svg>
