<?xml version="1.0" encoding="utf-8"?>
<!-- Generator: Adobe Illustrator 19.0.0, SVG Export Plug-In . SVG Version: 6.00 Build 0)  -->
<svg version="1.1" id="Capa_1" xmlns="http://www.w3.org/2000/svg" xmlns:xlink="http://www.w3.org/1999/xlink" x="0px" y="0px"
	 viewBox="-452 254.6 53.4 53.4" style="enable-background:new -452 254.6 53.4 53.4;" xml:space="preserve">
<style type="text/css">
	.st0{fill:#A42B31;}
	.st1{fill:#F0F0F0;}
</style>
<g>
	<rect id="XMLID_3_" x="-452" y="254" class="st0" width="54" height="54"/>
	<g id="XMLID_117_">
		<path id="XMLID_154_" class="st1" d="M-447,280.9c0-0.3,0.4-0.5,0.6-0.7c2.8-2.4,5.7-4.7,8.5-7.1c2.2-1.8,4.3-3.6,6.5-5.4
			c1.4-1.2,2.8-2.3,4.2-3.5c1.2-1,3-1,4.2,0c2.1,1.7,4.2,3.5,6.3,5.2c0.1,0,0.1,0.2,0.2,0.1c0.1,0,0.1-0.2,0.1-0.2
			c0-1.6,0-3.1,0-4.7c0-0.9,0.3-1.1,1.1-1.1c1.6,0,3.1,0,4.7,0c0.7,0,1.1,0.3,1.1,1.1c0,3.5,0,7,0,10.5c0,0.2,0.1,0.4,0.2,0.5
			c1.3,1.1,2.6,2.2,3.9,3.3c0.5,0.4,1.1,0.9,1.6,1.3c0.1,0.1,0.3,0.2,0.3,0.4c0.1,0.3,0.1,0.6,0,0.8c-0.3,0.6-0.8,1-1.2,1.6
			c-0.2,0.2-0.3,0.4-0.5,0.6c-0.4,0.4-0.8,0.4-1.2,0.1c-1.4-1.1-2.8-2.3-4.2-3.5c-2.2-1.9-4.5-3.7-6.7-5.6c-2.5-2.1-5-4.2-7.5-6.3
			c-0.2-0.2-0.4-0.2-0.7,0c-2.2,1.9-4.5,3.8-6.8,5.6c-1.6,1.3-3.2,2.7-4.8,4c-1.4,1.2-2.9,2.4-4.3,3.6c-0.7,0.6-1.4,1.2-2.1,1.8
			c-0.2,0.2-0.4,0.4-0.7,0.4c-0.4,0.1-0.7,0-1-0.3c-0.6-0.7-0.9-1.4-1.9-2.2C-447,281.3-447,281.1-447,280.9z"/>
		<path id="XMLID_115_" class="st1" d="M-409.6,290.1c0,2,0,4.1,0,6.2c0,1.3-0.7,2-1.9,2c-3.3,0-6.5,0-9.8,0c-0.3,0-0.4-0.1-0.4-0.4
			c0-3.2,0-6.4,0-9.6c0-0.3-0.1-0.4-0.4-0.4c-2.1,0-4.1,0-6.2,0c-0.3,0-0.3,0.1-0.3,0.4c0,3.2,0,6.4,0,9.6c0,0.3-0.1,0.4-0.4,0.4
			c-3.2,0-6.5,0-9.7,0c-1.3,0-2-0.7-2-1.9c0-4.2,0-8.3,0-12.5c0-0.3,0.1-0.5,0.3-0.7c2.4-2,4.8-3.9,7.2-5.9c1.5-1.2,3-2.4,4.4-3.7
			c1.1-0.9,2.3-1.9,3.4-2.8c0.2-0.1,0.2-0.1,0.4,0c2.4,2,4.8,3.9,7.1,5.9c2.2,1.8,4.4,3.7,6.7,5.5c0.4,0.4,0.9,0.7,1.3,1.1
			c0.2,0.1,0.2,0.3,0.2,0.5C-409.6,285.9-409.6,288-409.6,290.1z"/>
	</g>
</g>
</svg>
