<?xml version="1.0" encoding="utf-8"?>
<!-- Generator: Adobe Illustrator 19.0.0, SVG Export Plug-In . SVG Version: 6.00 Build 0)  -->
<svg version="1.1" id="Capa_1" xmlns="http://www.w3.org/2000/svg" xmlns:xlink="http://www.w3.org/1999/xlink" x="0px" y="0px"
	 viewBox="-452 254.6 53.4 53.4" style="enable-background:new -452 254.6 53.4 53.4;" xml:space="preserve">
<style type="text/css">
	.st0{fill:#2D4385;}
	.st1{fill:#F0F0F0;}
</style>
<rect id="XMLID_61_" x="-452" y="254" class="st0" width="54" height="54"/>
<g id="XMLID_27_">
	<path id="XMLID_28_" class="st1" d="M-437.6,260.7c0.8,0.3,1.6,0.5,2.4,0.7c1.8,0.5,3.6,1,5.4,1.5c0.6,0.2,0.6,0.1,0.6,0.7
		c0,2.5,0,5,0,7.4c0,0.2,0.1,0.4,0.2,0.5c2,1.9,3.9,3.9,5.8,5.9c0.2,0.2,0.2,0.2,0.4,0c2-2,4-4,6-6c0.5-0.5,0.8-1.2,1.2-1.8
		c0.8-1.3,1.7-2.6,2.5-3.9c0.1-0.1,0.1-0.2,0.2-0.2c1.2-0.7,2.4-1.3,3.6-2c0.2-0.1,0.3-0.1,0.4,0.1c0.7,0.8,1.5,1.5,2.2,2.2
		c0.1,0.1,0.2,0.2,0.1,0.4c-0.7,1.2-1.3,2.4-2,3.6c-0.2,0.3-0.4,0.4-0.7,0.6c-1.5,1-3.1,2-4.6,3c-0.7,0.4-1.2,1.1-1.8,1.6
		c-1.4,1.4-2.8,2.8-4.2,4.2c-0.2,0.2-0.4,0.4-0.6,0.7c-0.1,0.1-0.1,0.2,0,0.3c0.9,0.9,1.7,1.7,2.6,2.6c1,1,2,2.1,3.1,3.1
		c1.1,1.1,2.3,2.3,3.4,3.4c1.2,1.3,2.5,2.5,3.7,3.8c0.4,0.4,0.8,0.8,1.2,1.3c0.8,1,0.8,2.5,0.1,3.5c-0.8,1.1-2.3,1.6-3.5,1.1
		c-0.6-0.2-1.1-0.7-1.6-1.1c-3.6-3.6-7.2-7.3-10.9-10.9c-0.8-0.8-1.6-1.6-2.4-2.4c-0.1-0.1-0.2-0.2-0.4,0c-0.7,0.7-1.3,1.3-2,2
		c-0.1,0.1-0.2,0.2,0,0.4c0.4,0.4,0.8,0.8,1.2,1.2c0.1,0.1,0.1,0.2,0,0.3c-0.7,0.7-1.4,1.4-2.1,2.1c-0.1,0.1-0.2,0.2-0.3,0
		c-0.2-0.2-0.3-0.5-0.5-0.5c-0.2,0-0.3,0.4-0.4,0.6c-0.8,1.2-1.7,2.3-2.7,3.4c-1,1.1-2.1,2.2-3.3,3.1c-0.8,0.6-1.5,1.3-2.4,1.6
		c-0.1,0.1-0.1,0.1,0,0.2c0.2,0.1,0.3,0.3,0.4,0.4c0.2,0.2,0.2,0.3,0,0.4c-0.7,0.7-1.4,1.4-2.1,2.2c0,0,0,0-0.1,0
		c-0.1-0.1-0.3-0.2-0.4-0.3c-1.6-1.6-3.2-3.2-4.8-4.8c-0.4-0.4-0.4-0.4,0-0.8c0.6-0.6,1.1-1.1,1.7-1.7c0.3-0.4,0.4-0.4,0.8,0
		c0.3,0.3,0.3,0.3,0.5-0.1c0.6-1,1.4-2,2.2-2.8c1.2-1.3,2.4-2.5,3.7-3.6c0.8-0.6,1.5-1.3,2.4-1.8c0.1-0.1,0.1-0.2,0-0.3
		c-0.1-0.1-0.2-0.2-0.3-0.3c-0.1-0.2-0.2-0.3,0-0.5c0.7-0.7,1.3-1.3,2-2c0.2-0.2,0.3-0.2,0.5,0c0.4,0.4,0.7,0.7,1.1,1.1
		c0.2,0.2,0.3,0.2,0.5,0c0.6-0.6,1.1-1.2,1.7-1.7c0.3-0.3,0.3-0.3,0-0.6c-2-2-3.9-3.9-5.9-5.9c-0.2-0.2-0.3-0.2-0.5-0.2
		c-2.4,0-4.8,0-7.1,0c-0.5,0-0.5,0-0.7-0.5c-0.4-1.6-0.8-3.2-1.3-4.8c-0.2-0.9-0.5-1.9-0.8-2.8c-0.1-0.3-0.1-0.6,0.2-0.9
		c0.1-0.1,0.2-0.1,0.2-0.2c0.4-0.4,0.4-0.4,0.9,0c1.3,1.3,2.5,2.5,3.8,3.8c0.3,0.3,0.3,0.3,0.6,0c1.2-1.2,2.5-2.5,3.7-3.7
		c0.3-0.3,0.3-0.3,0-0.5c-1.3-1.3-2.5-2.5-3.8-3.8c-0.1-0.1-0.2-0.2-0.2-0.3c-0.1-0.1-0.1-0.2,0-0.4c0.3-0.2,0.5-0.5,0.8-0.7
		C-437.7,260.7-437.7,260.7-437.6,260.7z"/>
</g>
</svg>
